<svg width="40" height="40" fill="none" xmlns="http://www.w3.org/2000/svg"><path d="M8.82 24.895c.344-.572 1.436-.477 1.762-.458.306.02 1.398.172 2.202.993.326.344.25.42.575.706.517.44.824.287 1.685.707.767.362 1.207.591 1.38.782.096.115.402-.171.9-.267.575-.095 1.11-.363 1.705-.725.574-.363.727-.688.9-.936.134-.21.345-.4.383-1.527.057-1.451-.115-2.176-.153-2.33-.077-.4-.326-1.297-.115-1.756.019-.057.076-.133.096-.248.038-.324-.211-.572-.115-.687.057-.057.134-.038.134-.076s-.192-.038-.364-.153c-.134-.095-.153-.172-.287-.344-.154-.19-.262-.358-.396-.492-.671-.706-.984-1.207-.984-1.207-.076-.171-.134-.324-.287-.42-.249-.152-.46.058-.996.096-.555.038-.536-.153-1.11-.096-.346.038-.556.115-.786-.019-.115-.057-.192-.153-.307-.153-.134.02-.191.153-.268.249-.172.21-.402.267-.785.362-.21.058-2.529.592-3.046-.343-.153-.287-.172-.726.039-.936.095-.095.21-.114.421-.153.249-.057.479-.19.92-.477.88-.534.941-.956 1.592-1.261.269-.134.783-.17 1.855-.17 1.513 0 1.475.095 2.107.038 1.169-.134 1.38-.478 2.011-.344.594.115.9.515 1.571 1.28.153.17 1.59 1.775 3.026 3.015.326.287 1.15.974 2.107 1.967.307.324.537.592.728.992.326.65.288 1.108.364 1.948 0 .076.173.878.498 2.52.288 1.45.44 2.176.498 2.462.422 1.91.632 2.864.9 3.57.364.936.594 1.241.556 1.91-.058.916-.594 1.584-.785 1.813-1.15 1.375-3.027 1.527-4.29 1.604-.307.019-2.893.19-4.598-.879-.958-.591-1.647-1.279-1.647-1.279-.25-.248-.364-.381-.69-.649-.517-.439-.69-.477-1.092-.859-.325-.324-.306-.4-.613-.668-.287-.267-.555-.4-.842-.573-.632-.362-1.245-.763-1.84-1.069-.919-.477-1.13-.458-1.474-.706-.21-.153-.326-.267-.575-.382-.153-.076-.217-.085-.313-.18-.153-.173-.305-.584-.305-.64-.02-.44-.32-.802-.646-1.394-.536-.974-1.379-1.184-1.302-1.852 0-.038.019-.172.095-.306Z" fill="#22246F"/><path d="M20.181 13.603c.173-.133.035-.544-.137-1.938-.077-.592-.135-1.012-.173-1.164-.249-1.757-.21-1.89-.383-2.673-.21-.936-.268-.745-.46-1.623-.192-1.288.007-2.369.083-2.598.115-.286.236-.78.734-.915.345-.095.697-.019.735 0a.99.99 0 0 1 .517.44c.134.267.02.42.057.916.02.153.058.363.173.802.076.286.172.687.325 1.164.134.401.211.554.345.955.23.61.402 1.164.709 2.253.192.668.287.992.326 1.202.019.096.076.344.21.535.039.057-.019.057.115.19.153.153.115.153.172.23.192.267.077.477.25.783.134.267.383.229.421.439.058.305-.172.439-.096.515.039.038.096.02.173.038.268.076.172.917.287.936.057 0 .115-.248.21-.783.154-.783.096-.897.173-1.795.077-.84.23-1.355.192-1.718-.02-.152.038-.229.019-.324 0-.248-.077-.363-.02-.554.02-.114.096-.172.115-.229.039-.325-.038-.82-.019-.993.077-1.012.307-2.195 1.092-2.692.058-.038.192-.21.556-.229.306-.019.823.058.996.382.095.172.057.363 0 .611 0 0-.173.897-.23 2.062-.02.4-.038.324 0 1.184.019.496.076.61.057 2.08v.974c.077.611.173.764.192 1.298.019.573-.077.897-.038.917.057.019.191-.65.727-1.241.173-.21.537-.611.958-.535.153.02.326.134.402.286.115.23-.038.497-.21.917-.134.305-.23.592-.422 1.184-.21.687-.21.859-.46 1.489-.095.248-.095.21-.21.496-.364.897-.287 1.012-.651 2.004-.077.23-.211.592-.23 1.012v.306c0 .267.019.458.038.649.058.592-.02-.02.096 1.813.153 2.31.325 4.124.268 4.143-.057 0-.249-1.756-.843-4.257-.364-1.508-.536-2.253-.9-2.806-.575-.86-.881-.726-2.777-2.559-1.207-1.164-1.073-1.202-1.629-1.584-.766-.516-1.455-.726-1.704-1.432-.039-.267.08-.372-.13-.563-.384-.343-1.211-.353-1.23-.277 0 .057.884.526 1.23.277Z" fill="#22246F"/><path d="M18.358 26.957c.23-.21 1.053-.287 1.57-1.107.115-.191.173-.401.268-.821.154-.707.154-1.451.077-2.005a5.851 5.851 0 0 0-.077-.573c-.057-.362-.019-.496-.019-.61l-.019-.21c0-.287-.115-.44-.153-.802-.02-.268-.02-.535.096-.688.076-.114.095-.248.095-.248.02-.248-.287-.592-.115-.687.211-.114.039-.076-.038-.134a1.863 1.863 0 0 1-.498-.42c-.575-.687-.92-1.107-1.379-1.775-.077-.115-.192-.172-.249-.363-.038-.133-.23-.114-.23-.114-.613.19-.747.038-1.896.095-.402.02-.766.096-.862-.114-.038-.115-.25 0-.25 0-.095.057-.056.133-.574.381-.67.325-.594.268-.65.268a6.51 6.51 0 0 1-.959.114c-.23.02-1.475.153-1.934-.63a.718.718 0 0 1-.096-.496.62.62 0 0 1 .077-.267.66.66 0 0 1 .153-.172c.421-.21.594-.23.88-.325.173-.057.346-.229.997-.744.747-.592.69-.65.824-.726.153-.076.517-.172 1.704-.19 1.073-.02 1.456.057 2.28 0 .766-.058.957-.115 1.168-.192.192-.057.44-.267.747-.21.115.02.287.058.556.23.44.286.708.649.766.725.191.267.594.63 1.398 1.374.594.554.996.879 1.092 1.07.02.038.038.057.096.095.115.134.172.191.191.21.115.115.192.19.268.21.192.095.364.305.613.573.402.42.767.649 1.284 1.126.747.687 1.13 1.012 1.379 1.585.096.21.191.801.383 1.985.096.63.134.878.23 1.432.095.515.172.783.268 1.184.057.21.096.4.134.572l.23 1.184c.096.458.076.382.134.706.21 1.088.249 1.432.44 2.138.02.058.02.096.039.153.095.286.249.745.555 1.642.364 1.088.422 1.183.422 1.432.038.897-.518 1.603-.786 1.928-1.264 1.584-3.563 1.603-4.712 1.623a9.265 9.265 0 0 1-2.7-.363c-.652-.153-1.437-.477-1.571-.611l-.46-.191c-.153-.115-.115-.172-.345-.4-.344-.345-.593-.42-.67-.497l-.23-.172c-.21-.115-.23-.248-.46-.496-.479-.535-.88-.669-.977-.783l-.172-.153c-.191-.114-.268-.305-.345-.382-.134-.171-.344-.4-1.187-.916-1.59-.936-2.375-1.413-2.778-1.49a1.048 1.048 0 0 1-.44-.247c-.039-.038-.096-.038-.096-.038-.096.019-.134-.134-.345-.306-.249-.19-.383-.134-.498-.23l-.153-.305c-.077-.152-.172-.305-.383-.84-.172-.458-.306-.782-.575-1.126-.134-.172-.095-.095-.536-.573-.46-.515-.575-.687-.594-.935 0-.21.077-.363.096-.42.192-.382.594-.477.728-.535.249-.076.46-.076.67-.038.805.172 1.226.153 2.05.669.057.038.23.229.402.305.038.019.077.019.096.057l.096.21c.115.267.249.248.383.42.172.248.536.363 1.302.611.115.038 1.34.44 1.647.726.096.095.154.21.154.21.076.171.076.343.095.343.02 0-.038-.21.039-.344.076-.133.268-.171.364-.171.766-.134.766-.134 1.245-.306l.23-.095Z" stroke="#fff" stroke-width=".182" stroke-miterlimit="10"/><path d="M24.22 12.944c.057-.133-.02-.267-.096-.42-.077-.152-.268-.229-.326-.362-.038-.077-.038-.172-.038-.172 0-.039-.039-.172-.096-.401-.038-.134-.077-.21-.115-.287-.096-.152-.172-.171-.249-.305-.057-.095-.057-.19-.076-.248 0-.02-.116-.363-.307-1.05-.345-1.146-.517-1.737-.67-2.177-.384-1.107-.498-1.24-.728-2.08-.134-.497-.192-.745-.23-1.031-.134-.86 0-1.127-.23-1.432-.249-.306-.728-.42-1.111-.306-.536.153-.747.726-.862.993-.153.42-.134.86-.096 1.737.02.268.02.497.077.783.077.516.192.726.306 1.184.096.343.154.706.269 1.432.114.706.172 1.221.21 1.622.096.86.383 1.718.345 2.578 0 .133-.038.477.153.84.134.248.307.381.383.458.69.553 1.265 1.24 1.916 1.832.325.287.536.497.92.84 1.685 1.547 1.455 1.413 1.819 1.7.498.4.785.572 1.13 1.03.268.344.402.668.46.783.153.344.191.61.306 1.317.096.669.153.993.192 1.299.172 1.527.613 3.169.69 3.15.076-.02-.173-.993-.173-2.673 0-.707.057-1.222-.077-2.081-.076-.458-.134-.86-.364-1.317-.057-.115-.134-.268-.593-.955-.498-.745-.518-.745-.67-.974-.422-.668-.595-1.26-.786-1.909-.307-1.011-.23-1.126-.498-1.641-.192-.363-.345-.516-.44-.917-.077-.324-.058-.573-.211-.649-.058 0-.211 0-.134-.19Z" stroke="#fff" stroke-width=".182" stroke-miterlimit="10"/><path d="M27.935 14.261a.744.744 0 0 0 .039-.458c-.077-.458-.077-.916-.192-1.355-.038-.153-.057-.726-.077-1.87 0-.192-.038-1.872 0-3.323 0-.324.02-.4.02-.496.076-.611.23-.86.21-1.375 0-.19-.019-.305-.095-.4-.23-.306-.805-.268-1.169-.153-.479.172-.728.553-.881.782-.46.707-.498 1.509-.498 1.871v.535c0 .076-.02.19-.02.324-.057.573-.057.573-.076.707v.076c-.019.077.02.802-.096 1.795-.057.477-.172 1.05-.153 1.431 0 .058.02.153 0 .287-.038.286-.134.363-.115.477 0 .057-.019.153-.019.153-.038.038-.038.076-.096.344-.076.324-.095.343-.095.458.019.171.095.286.21.42.115.152.058.133.48 1.317.114.343.114.324.171.477.173.516.173.63.269.936.115.362.306.687.69 1.336.325.554.401.61.459.592.134-.038.057-.458.21-1.184.116-.496.192-.477.288-.954.096-.516 0-.516.115-1.127.096-.515.153-.763.23-.935.076-.134.172-.267.153-.42 0 0-.038-.153.038-.268Z" stroke="#fff" stroke-width=".182" stroke-miterlimit="10"/><path d="M27.917 19.187c-.058.133-.039.248-.039.305-.038.535.039.42.02 1.031-.02.44-.02.726-.058.745-.058 0 .038-.669-.383-1.165-.096-.114-.288-.343-.46-.687l-.057-.172c-.096-.343-.02-.553 0-.783.019-.286.153-.381.306-.916.039-.134.077-.286.115-.496.077-.401.02-.478.077-.936.038-.4.076-.61.172-.782.038-.077.134-.249.23-.535.077-.19.038-.19.038-.286l.115-.382c.23-.325.153-.382.383-.745.25-.4.517-.592.67-.687.173-.114.326-.21.518-.172.134.02.326.115.402.287.115.248-.076.534-.383 1.355l-.115.344a3.568 3.568 0 0 0-.115.4c-.172.611-.172.745-.287 1.05l-.383.917c-.058.134-.077.267-.173.42-.23.4-.095.496-.344 1.145-.115.287-.192.382-.25.535v.21Z" stroke="#fff" stroke-width=".182" stroke-miterlimit="10"/><path d="M13.882 22.176c.72-1.865-.182-3.96-2.016-4.678-1.835-.718-3.912.206-4.633 2.07-.72 1.865.182 3.96 2.017 4.678 1.84.718 3.912-.212 4.632-2.07Z" fill="#E29813"/><path d="M13.039 22.882c1.308-1.497 1.18-3.784-.29-5.112a3.532 3.532 0 0 0-5.039.314c-1.308 1.497-1.18 3.784.291 5.112a3.538 3.538 0 0 0 5.038-.314Z" fill="#EEBE13"/><path opacity=".2" d="M10.37 23.123c1.5-.012 2.712-1.225 2.706-2.71-.006-1.484-1.23-2.679-2.731-2.667-1.502.012-2.713 1.225-2.707 2.71.006 1.49 1.23 2.68 2.731 2.667Z" fill="#fff"/><path opacity=".3" d="M10.345 17.752c1.478-.012 2.683 1.171 2.731 2.65 0-.03.006-.049 0-.079a2.726 2.726 0 0 0-2.73-2.734c-1.496.013-2.708 1.256-2.701 2.783 0 .03.006.048 0 .078.036-1.479 1.223-2.68 2.7-2.698Z" fill="#000"/><path d="M11.568 21.204c-.006-.387-.181-.64-.454-.742.194-.121.321-.357.321-.658-.006-.387-.212-.652-.612-.737l-.006-.47h-.43v.434h-.242v-.434h-.43v.434l-.387.006-.273.006v.435l.273-.006.012 2.112h-.303v.434h.303l.387-.006v.514h.43v-.514h.242v.514h.43V22c.497-.066.745-.35.74-.796ZM9.885 19.49l.581-.006c.321 0 .503.133.509.41.006.278-.182.405-.503.41l-.66.013-.006-.821.079-.006Zm.684 2.1-.702.006-.049-.006v-.857l.751-.012c.351-.006.539.127.545.422-.006.32-.194.447-.545.447Z" fill="#E29813"/></svg>