<svg width="114" height="110" fill="none" xmlns="http://www.w3.org/2000/svg"><path opacity=".18" d="M96.328 26.767H17.252C8.829 26.767 2 30.395 2 34.872v48.74c0 4.476 6.829 8.105 15.252 8.105h79.076c8.424 0 15.252-3.63 15.252-8.105v-48.74c0-4.477-6.828-8.105-15.252-8.105Z" fill="#DBE4FC"/><path d="M26.907 62.4H51.48v29.675H26.907V62.4Z" fill="#fff"/><path d="M51.478 62.4v29.674H26.907V62.401h24.571Zm0-.241H26.907a.242.242 0 0 0-.242.242v29.673a.242.242 0 0 0 .242.242h24.571a.242.242 0 0 0 .242-.242V62.401a.242.242 0 0 0-.242-.242Z" fill="#231F20"/><path d="M31.164 75.402c-.686 1.102-.86 2.43-.952 3.736h18.596a.926.926 0 0 0 .026-.227c0-1.347-2.145-1.73-2.442-2.975-.177-.725.302-1.45.404-2.208.167-1.264-.726-2.384-1.301-3.525-.697-1.405-.341-3.185-1.243-4.416-1.195-1.632-3.13-1.966-5.062-1.966a7.637 7.637 0 0 0-3.143.633c-.924.395-1.34 1.3-1.56 2.274-.37-.162-.803 0-1.137.241-1.484 1.011-1.888 2.999-1.596 4.675.14.803.436 1.632.194 2.418-.15.491-.508.895-.784 1.34Z" fill="#fff"/><path d="M51.55 84.309v7.951H26.648v-7.947c2.514-2.185 6.127-2.934 9.21-3.18a40.087 40.087 0 0 1 3.242-.12h.22c.878 0 1.893.028 2.968.115a.232.232 0 0 1 .055 0c3.087.251 6.688 1 9.207 3.18Z" fill="#68E1FD"/><path d="m42.713 81.38-2.56 8.421-.752 2.459h-.61l-.752-2.469-2.556-8.39a.058.058 0 0 0 0-.021c1.726-.488 5.499-.488 7.23 0Z" fill="#231F20"/><path d="M35.934 81.723s.815 1.777 3.197 1.777a3.845 3.845 0 0 0 3.332-1.777l-.32-6.984h-5.905l-.304 6.984Z" fill="#fff"/><path d="M35.885 81.215v.602l.602.602 1.406 1.005s1.11.108 1.808 0c.564-.088.803-.201 1.405-.402.603-.2.423-.116.804-.603.185-.242.348-.319.402-.602.053-.283 0-.602 0-.602s-.328-.863-.427-1.745c-.1-.88.18-1.816-.765-2.244a3.286 3.286 0 0 0-1.629-.202c-1.124.107-2.958.334-2.938 1.269.06 2.701-.668 2.921-.668 2.921Z" fill="url(#a)"/><path d="M35.968 80.391a3.164 3.164 0 0 0-.649 1.393c-.196.852-.344 2.09.026 2.964l1.747-.622a9.312 9.312 0 0 1-.538-2.011c-.105-.6-.21-1.22-.136-1.815.018-.09-.308-.07-.45.091ZM42.437 80.587c.296.5.462 1.059.483 1.627.069.944.012 2.279-.566 3.102l-1.872-1.1a8.879 8.879 0 0 0 .976-1.972c.228-.602.46-1.224.484-1.868-.005-.1.362.006.495.211Z" fill="#231F20"/><path d="m39.193 85.345-1.122-.866 1.122-.868 1.124.868-1.124.866Z" fill="#fff"/><path d="m40.148 89.737-.68 2.339h-.55l-.68-2.349.556-4.689v-.002l.022-.162.012-.1h.732l.012.105.02.157v.002l.556 4.7Z" fill="#fff"/><path d="M30.884 92.198a.128.128 0 0 1-.126-.108l-.955-7.2a.124.124 0 0 1 .19-.103c.025.017.043.041.052.07l.967 7.201a.126.126 0 0 1-.109.14h-.02ZM47.505 92.198h-.017a.125.125 0 0 1-.107-.14l.956-7.201a.125.125 0 0 1 .207-.04c.02.02.032.046.034.074l-.967 7.199a.125.125 0 0 1-.106.108Z" fill="#231F20"/><path d="M42.917 73.133c.196-1.64 2.222-2.043 2.123-.11a3.417 3.417 0 0 1-.541 1.81c-.346.484-.907.7-1.36.428" fill="#fff"/><path d="M43.563 75.503a.937.937 0 0 1-.483-.135.126.126 0 0 1-.042-.172.123.123 0 0 1 .17-.041c.372.222.863.06 1.197-.394.332-.522.51-1.127.515-1.746.036-.684-.208-1.117-.656-1.156-.512-.048-1.12.464-1.209 1.289a.126.126 0 0 1-.242-.031c.121-1 .866-1.56 1.49-1.507.462.041.936.433.883 1.417a3.566 3.566 0 0 1-.564 1.881 1.33 1.33 0 0 1-1.059.595Z" fill="#231F20"/><path d="M35.276 73.133c-.196-1.64-2.223-2.043-2.124-.11.007.642.195 1.27.542 1.81.346.484.907.7 1.36.428" fill="#fff"/><path d="M34.628 75.503a1.329 1.329 0 0 1-1.035-.595 3.56 3.56 0 0 1-.564-1.881c-.053-.984.421-1.376.883-1.417.621-.053 1.369.508 1.487 1.507a.123.123 0 0 1-.109.14.126.126 0 0 1-.138-.11c-.099-.824-.71-1.336-1.209-1.288-.445.039-.689.484-.653 1.156.005.619.183 1.224.516 1.746.333.455.824.617 1.197.394a.124.124 0 0 1 .183.135.126.126 0 0 1-.055.078.94.94 0 0 1-.503.135Z" fill="#231F20"/><path d="M43.56 69.535v4.75a4.125 4.125 0 0 1-4.128 4.125h-.484a4.125 4.125 0 0 1-4.127-4.125V69.78l2.597-.216.297-2.06.65 2.331 1.846-.242c.188-.824 0-2.604-.03-2.684l1.33 2.493 2.049.133ZM42.917 87.396h4.043v1.076h-4.043v-1.076Z" fill="#fff"/><path d="M39.258 74.795c-.199 0-.397-.011-.595-.034a.285.285 0 0 1-.208-.14c-.31-.515.498-2.684.665-3.112a.129.129 0 0 1 .242.087c-.365.953-.873 2.58-.684 2.902 0 .02.02.02.026.02.388.042.779.042 1.166 0a.126.126 0 0 1 .14.108.128.128 0 0 1-.109.14 5.57 5.57 0 0 1-.643.03ZM94.406 62.21H19.538a.121.121 0 0 1-.121-.12.124.124 0 0 1 .12-.121h74.869a.124.124 0 0 1 .12.12.121.121 0 0 1-.12.122Z" fill="#231F20"/><path d="M87.337 68.857H67.02a.515.515 0 1 0 0 1.028h20.318a.515.515 0 1 0 0-1.028ZM78.98 77.058H67.02a.515.515 0 1 0 0 1.028h11.96a.514.514 0 1 0 0-1.028ZM84.83 84.874H67.02a.515.515 0 1 0 0 1.027h17.81a.515.515 0 1 0 0-1.027ZM82.474 92.69H67.02a.514.514 0 1 0 0 1.027h15.455a.515.515 0 1 0 0-1.028Z" fill="#D1D3D4"/><path d="M61.136 71.481v-.667a1.45 1.45 0 0 0-2.902 0v.667h2.902Z" fill="#fff"/><path d="M61.136 71.603h-2.885a.12.12 0 0 1-.12-.121v-.667a1.565 1.565 0 1 1 3.126 0v.667a.12.12 0 0 1-.12.12Zm-2.764-.242h2.643v-.546a1.323 1.323 0 1 0-2.643 0v.546Z" fill="#D1D3D4"/><path d="M59.694 69.37a1.028 1.028 0 1 0 0-2.055 1.028 1.028 0 0 0 0 2.055Z" fill="#fff"/><path d="M59.692 69.492a1.151 1.151 0 1 1 0-2.303 1.151 1.151 0 0 1 0 2.303Zm0-2.058a.91.91 0 1 0 0 1.819.91.91 0 0 0 0-1.82Z" fill="#D1D3D4"/><path d="M61.339 79.251h-3.647v-2.616l1.824-1.05 1.823 1.05v2.616Z" fill="#fff"/><path d="M61.34 79.38h-3.642a.121.121 0 0 1-.121-.121v-2.624a.12.12 0 0 1 .06-.104l1.823-1.05a.121.121 0 0 1 .121 0l1.824 1.05a.116.116 0 0 1 .06.104v2.614a.12.12 0 0 1-.076.122.123.123 0 0 1-.05.009Zm-3.526-.242h3.404V76.72l-1.692-.98-1.693.98-.02 2.418Z" fill="#D1D3D4"/><path d="M58.883 77.418h1.27v1.833h-1.27v-1.833Z" fill="#fff"/><path d="M60.152 79.38h-1.27a.12.12 0 0 1-.12-.121v-1.831a.121.121 0 0 1 .12-.12h1.27a.121.121 0 0 1 .121.12v1.83a.12.12 0 0 1-.12.121Zm-1.148-.242h1.028v-1.589h-1.028v1.589Z" fill="#D1D3D4"/><path d="m57.13 76.942 2.386-1.357 2.37 1.357" fill="#fff"/><path d="M61.886 77.063a.121.121 0 0 1-.058-.014l-2.312-1.323-2.326 1.323a.12.12 0 0 1-.165-.046.117.117 0 0 1-.013-.092.12.12 0 0 1 .057-.073l2.389-1.356a.116.116 0 0 1 .119 0l2.37 1.356a.12.12 0 0 1-.061.225ZM61.354 87.137h-3.627a.466.466 0 0 1-.467-.467v-1.692a.47.47 0 0 1 .467-.467h3.627a.47.47 0 0 1 .467.467v1.692a.466.466 0 0 1-.467.467Zm-3.627-2.39a.225.225 0 0 0-.225.226v1.692a.225.225 0 0 0 .225.225h3.627a.225.225 0 0 0 .225-.225v-1.692a.225.225 0 0 0-.225-.225h-3.627Z" fill="#D1D3D4"/><path d="M59.093 83.975h.98a.416.416 0 0 1 .415.416v.241H58.68v-.242a.416.416 0 0 1 .414-.415Z" fill="#fff"/><path d="M60.486 84.748h-1.809a.12.12 0 0 1-.12-.121v-.242a.534.534 0 0 1 .536-.537h.967a.533.533 0 0 1 .535.537v.242a.121.121 0 0 1-.109.12Zm-1.693-.242h1.565v-.119a.295.295 0 0 0-.293-.295h-.967a.295.295 0 0 0-.295.295l-.01.119Z" fill="#D1D3D4"/><path d="M58.338 91.545h3.11v3.62h-3.11v-3.62Z" fill="#fff"/><path d="M61.448 95.29h-3.11a.121.121 0 0 1-.121-.122v-3.627a.121.121 0 0 1 .121-.121h3.11a.121.121 0 0 1 .12.12v3.628a.121.121 0 0 1-.12.121Zm-2.99-.243h2.866v-3.385H58.46v3.385Z" fill="#D1D3D4"/><path d="M57.57 91.016h3.11v3.62h-3.11v-3.62Z" fill="#fff"/><path d="M60.68 94.757h-3.11a.121.121 0 0 1-.12-.121v-3.627a.121.121 0 0 1 .12-.121h3.11a.12.12 0 0 1 .12.12v3.628a.12.12 0 0 1-.12.12Zm-2.989-.242h2.868v-3.386h-2.86l-.008 3.386Z" fill="#D1D3D4"/><path d="M59.895 92.06h-1.67a.12.12 0 1 1 0-.242h1.67a.121.121 0 0 1 .12.12.123.123 0 0 1-.12.122ZM59.895 92.68h-1.67a.12.12 0 1 1 0-.243h1.67a.121.121 0 0 1 0 .242ZM59.895 93.274h-1.67a.12.12 0 1 1 0-.242h1.67a.124.124 0 0 1 .12.121.121.121 0 0 1-.12.121ZM59.895 93.889h-1.67a.12.12 0 1 1 0-.242h1.67a.121.121 0 0 1 .12.12.123.123 0 0 1-.12.122Z" fill="#D1D3D4"/><path d="M91.032 56.914H22.667a3.25 3.25 0 0 0-3.25 3.25v37.385a3.25 3.25 0 0 0 3.25 3.25h68.365a3.25 3.25 0 0 0 3.25-3.25V60.164a3.25 3.25 0 0 0-3.25-3.25Z" fill="#F8F6F6"/><path d="M91.153 101.041H22.79a3.382 3.382 0 0 1-3.373-3.37V60.284a3.386 3.386 0 0 1 3.373-3.371h68.363a3.386 3.386 0 0 1 3.373 3.37V97.67a3.384 3.384 0 0 1-3.373 3.371ZM22.79 57.155a3.144 3.144 0 0 0-3.131 3.13V97.67a3.143 3.143 0 0 0 3.131 3.129h68.363a3.14 3.14 0 0 0 3.132-3.129V60.285a3.144 3.144 0 0 0-3.132-3.13H22.79Z" fill="#231F20"/><path d="M27.05 62.938h23.295V92.26H27.05V62.94Z" fill="#fff"/><mask id="b" fill="#fff"><path d="M51.31 62.358v27.27H26.888v-27.27H51.31Zm0-.223H26.888a.25.25 0 0 0-.17.065.214.214 0 0 0-.07.157v27.27c0 .06.025.116.07.157a.25.25 0 0 0 .17.066H51.31a.25.25 0 0 0 .17-.066.214.214 0 0 0 .07-.157v-27.27a.214.214 0 0 0-.07-.157.251.251 0 0 0-.17-.065Z"/></mask><path d="M51.31 62.358v27.27H26.888v-27.27H51.31Zm0-.223H26.888a.25.25 0 0 0-.17.065.214.214 0 0 0-.07.157v27.27c0 .06.025.116.07.157a.25.25 0 0 0 .17.066H51.31a.25.25 0 0 0 .17-.066.214.214 0 0 0 .07-.157v-27.27a.214.214 0 0 0-.07-.157.251.251 0 0 0-.17-.065Z" fill="#D1D3D4"/><path d="M51.31 62.358h.535v-.536h-.535v.535Zm0 27.27v.535h.535v-.536h-.535Zm-24.422 0h-.536v.535h.536v-.536Zm0-27.27v-.536h-.536v.535h.536Zm23.886 0v27.27h1.071v-27.27h-1.07Zm.536 26.734H26.888v1.07H51.31v-1.07Zm-23.887.535v-27.27h-1.07v27.27h1.07Zm-.535-26.734H51.31v-1.071H26.888v1.071ZM51.31 61.6H26.888v1.07H51.31V61.6Zm-24.422 0a.786.786 0 0 0-.534.207l.727.787a.285.285 0 0 1-.193.077V61.6Zm-.534.207a.75.75 0 0 0-.242.55h1.071a.322.322 0 0 1-.102.237l-.727-.787Zm-.242.55v27.27h1.071v-27.27h-1.071Zm0 27.27a.75.75 0 0 0 .242.55l.727-.786c.06.055.102.139.102.236h-1.071Zm.242.55c.148.138.341.208.534.208v-1.071c.065 0 .135.024.193.077l-.727.787Zm.534.208H51.31v-1.071H26.888v1.071Zm24.422 0c.193 0 .385-.07.533-.207l-.727-.787a.285.285 0 0 1 .194-.077v1.071Zm.533-.207a.75.75 0 0 0 .243-.55h-1.072c0-.098.043-.182.102-.237l.727.787Zm.243-.55v-27.27h-1.072v27.27h1.072Zm0-27.27a.75.75 0 0 0-.243-.55l-.727.786a.322.322 0 0 1-.102-.236h1.072Zm-.243-.55a.786.786 0 0 0-.533-.208v1.07a.285.285 0 0 1-.194-.076l.727-.787Z" fill="#000" mask="url(#b)"/><path d="M31.164 75.4c-.686 1.103-.86 2.431-.952 3.737h18.596a.926.926 0 0 0 .026-.227c0-1.347-2.145-1.73-2.442-2.975-.177-.725.302-1.45.404-2.208.167-1.264-.726-2.384-1.301-3.525-.697-1.405-.341-3.185-1.243-4.416-1.195-1.632-3.13-1.966-5.062-1.966a7.639 7.639 0 0 0-3.143.634c-.924.394-1.34 1.298-1.56 2.273-.37-.162-.803 0-1.137.242-1.484 1.01-1.888 2.998-1.596 4.674.14.803.436 1.632.194 2.418-.15.491-.508.895-.784 1.34Z" fill="#fff"/><path d="M35.934 81.722s.815 1.778 3.197 1.778a3.845 3.845 0 0 0 3.332-1.778l-.32-6.984h-5.905l-.304 6.984Z" fill="#fff"/><path d="M49.542 82.445v5.396H29.459v-5.393c2.028-1.483 4.941-1.99 7.428-2.158.96-.066 1.856-.081 2.615-.081h.177c.708 0 1.526.018 2.394.078a.226.226 0 0 1 .044 0c2.49.17 5.393.678 7.425 2.158Z" fill="#485BC1"/><path d="M35.885 81.214v.603l.602.602 1.406 1.004s1.11.108 1.808 0c.564-.088.803-.2 1.405-.402.603-.2.423-.116.804-.602.185-.243.348-.32.402-.602.053-.284 0-.603 0-.603s-.328-.863-.427-1.744c-.1-.881.18-1.816-.765-2.245a3.287 3.287 0 0 0-1.629-.201c-1.124.107-2.958.333-2.938 1.268.06 2.702-.668 2.922-.668 2.922Z" fill="url(#c)"/><path d="M42.917 73.133c.196-1.64 2.222-2.043 2.123-.111a3.417 3.417 0 0 1-.541 1.81c-.346.485-.907.7-1.36.429" fill="#fff"/><path d="M43.563 75.502a.938.938 0 0 1-.483-.135.125.125 0 0 1 .035-.227.124.124 0 0 1 .093.014c.372.222.863.06 1.197-.394.332-.522.51-1.127.515-1.746.036-.684-.208-1.117-.656-1.156-.512-.048-1.12.464-1.209 1.289a.126.126 0 0 1-.242-.032c.121-.998.866-1.56 1.49-1.506.462.041.936.433.883 1.417a3.566 3.566 0 0 1-.564 1.881 1.33 1.33 0 0 1-1.059.595Z" fill="#231F20"/><path d="M35.276 73.133c-.196-1.64-2.223-2.043-2.124-.111.007.642.195 1.27.542 1.81.346.485.907.7 1.36.429" fill="#fff"/><path d="M34.628 75.502a1.33 1.33 0 0 1-1.035-.595 3.56 3.56 0 0 1-.564-1.881c-.053-.984.421-1.376.883-1.417.621-.053 1.369.508 1.487 1.507a.123.123 0 0 1-.109.14.126.126 0 0 1-.138-.11c-.099-.824-.71-1.336-1.209-1.288-.445.039-.689.484-.653 1.156.005.619.183 1.224.516 1.746.333.454.824.616 1.197.394a.124.124 0 0 1 .183.135.125.125 0 0 1-.055.078.94.94 0 0 1-.503.135Z" fill="#231F20"/><path d="M43.56 69.534v4.75a4.125 4.125 0 0 1-4.128 4.125h-.484a4.125 4.125 0 0 1-4.127-4.125v-4.505l2.597-.216.297-2.06.65 2.331 1.846-.242c.188-.824 0-2.604-.03-2.684l1.33 2.493 2.049.133Z" fill="#fff"/><path d="M39.258 74.794c-.199 0-.397-.011-.595-.034a.285.285 0 0 1-.208-.14c-.31-.515.498-2.684.665-3.112a.129.129 0 0 1 .237-.011c.015.03.017.066.005.098-.365.953-.873 2.58-.684 2.902 0 .02.02.02.026.02.388.042.779.042 1.166 0a.126.126 0 0 1 .14.108.128.128 0 0 1-.109.14 5.57 5.57 0 0 1-.643.03ZM94.406 94.342H19.538a.12.12 0 1 1 0-.241h74.868a.123.123 0 0 1 .12.12.121.121 0 0 1-.12.121Z" fill="#231F20"/><path d="M87.337 68.856H67.02a.515.515 0 1 0 0 1.028h20.318a.515.515 0 1 0 0-1.028ZM79.289 78.202h-11.96a.514.514 0 1 0 0 1.027h11.96a.515.515 0 1 0 0-1.027ZM82.327 85.03h-17.81a.514.514 0 1 0 0 1.028h17.81a.514.514 0 1 0 0-1.028Z" fill="#D1D3D4"/><path d="M91.153 13.656H22.788a3.25 3.25 0 0 0-3.25 3.25V54.29a3.25 3.25 0 0 0 3.25 3.25h68.365a3.25 3.25 0 0 0 3.25-3.25V16.906a3.25 3.25 0 0 0-3.25-3.25Z" fill="#FBFBFB"/><path d="M91.153 57.662H22.79a3.386 3.386 0 0 1-3.373-3.37V16.905a3.386 3.386 0 0 1 3.373-3.371h68.363a3.386 3.386 0 0 1 3.373 3.37v37.386a3.386 3.386 0 0 1-3.373 3.371ZM22.79 13.776a3.144 3.144 0 0 0-3.131 3.13V54.29a3.143 3.143 0 0 0 3.131 3.13h68.363a3.144 3.144 0 0 0 3.132-3.13V16.906a3.144 3.144 0 0 0-3.132-3.13H22.79Z" fill="#231F20"/><path d="M86.013 44.06H51.226c-.487 0-.882.72-.882 1.607s.395 1.607.882 1.607h34.787c.487 0 .882-.72.882-1.607s-.395-1.607-.882-1.607ZM87.383 66.554H59.094c-.396 0-.717.719-.717 1.606 0 .888.321 1.607.717 1.607h28.289c.396 0 .717-.72.717-1.607s-.321-1.606-.717-1.606Z" fill="#D1D3D4"/><path d="M94.406 19.802H19.538a.121.121 0 0 1-.121-.121.124.124 0 0 1 .12-.12h74.869a.123.123 0 0 1 .12.12.121.121 0 0 1-.12.12Z" fill="#231F20"/><path d="M87.383 72.98H59.094c-.396 0-.717.72-.717 1.607s.321 1.606.717 1.606h28.289c.396 0 .717-.72.717-1.606 0-.888-.321-1.607-.717-1.607ZM87.383 80.612H59.094c-.396 0-.717.72-.717 1.606 0 .888.321 1.607.717 1.607h28.289c.396 0 .717-.72.717-1.607s-.321-1.606-.717-1.606ZM87.383 87.439H59.094c-.396 0-.717.72-.717 1.607s.321 1.606.717 1.606h28.289c.396 0 .717-.72.717-1.606 0-.888-.321-1.607-.717-1.607ZM73.092 30.404H35.63c-.524 0-.95.72-.95 1.607s.426 1.606.95 1.606h37.463c.525 0 .95-.719.95-1.606 0-.887-.425-1.607-.95-1.607ZM57.216 25.585H43.072c-.198 0-.359.27-.359.602 0 .333.16.603.359.603h14.144c.198 0 .358-.27.358-.603 0-.332-.16-.602-.358-.602Z" fill="#D1D3D4"/><path d="M61.352 84.626h-3.63a.346.346 0 0 0-.346.346v1.698c0 .19.155.346.346.346h3.63a.346.346 0 0 0 .345-.346v-1.698a.346.346 0 0 0-.346-.346Z" fill="#fff"/><path d="M74.487 39.643H60.343c-.198 0-.359.27-.359.602 0 .333.16.602.359.602h14.144c.198 0 .359-.27.359-.602 0-.333-.16-.602-.359-.602Z" fill="#D1D3D4"/><path d="M36.414 78.672s1.156 3.032 3.197 2.72c2.042-.31 2.042-1.918 2.042-1.918l-.22-1.752-5.019.95Z" fill="url(#d)"/><path d="M45.997 73.638a2 2 0 0 1-.433.678c-.19.197-.42.357-.676.47a1.23 1.23 0 0 1-.443.105 7.067 7.067 0 0 1-1.165 2.397c-.779 1.064-1.935 1.833-3.263 2.168a4.702 4.702 0 0 1-2.019.045 4.561 4.561 0 0 1-1.83-.803c-.932-.74-1.473-1.848-1.864-2.948-.043-.118-.08-.241-.122-.36a.58.58 0 0 1-.2.106c-.221.07-.458.083-.687.039a1.347 1.347 0 0 1-.613-.293 2.093 2.093 0 0 1-.28-.316 2.287 2.287 0 0 1-.527-1.082.74.74 0 0 1 .047-.376.852.852 0 0 1 .433-.298.904.904 0 0 1 .536.004c.245.043.48.126.695.245a11.916 11.916 0 0 1-.401-2.72c0-1.236 1.748-2.699 2.796-3.233a6.559 6.559 0 0 1 3.7-.438 5.498 5.498 0 0 1 2.005.573 6.02 6.02 0 0 1 1.967 2.094c.384.543.686 1.133.9 1.753.1.33.158.67.172 1.012a1.76 1.76 0 0 1 .727-.482.366.366 0 0 1 .26 0c.068.038.12.094.15.162.248.465.296 1.001.135 1.498Z" fill="url(#e)"/><path d="M32.686 67.847a3.169 3.169 0 0 1 1.105-1.88c.42-.271.896-.456 1.398-.543a19.31 19.31 0 0 1 6.953-.29 3.67 3.67 0 0 1 2.102.811c.774.767.466 1.967.578 3.023.345 3.803-.405 3.4-.522 4.38-.391-1.06-.708-3.666-1.78-4.152a4.785 4.785 0 0 0-1.864-.298c-1.04-.022-4.07-.17-5.365 1.038-1.477 1.38-1.16 4.158-1.156 4.407 0 .53-1.603-2.773-1.677-3.412a8.398 8.398 0 0 1 .228-3.084Z" fill="#3E3E54"/><circle cx="35.885" cy="45.668" r="9.238" fill="#E6E6E6"/><circle cx="35.884" cy="46.069" r="7.364" fill="#fff" stroke="#000" stroke-width=".536"/><circle cx="36.085" cy="45.868" r="7.752" fill="#D1D3D4" stroke="#000" stroke-width=".161" stroke-dasharray="2.68 2.68"/><circle cx="36.087" cy="45.868" r="6.145" fill="#E6E6E6" stroke="#000" stroke-width=".161"/><path d="M2 17.026V2h15.22M112 17.026V2H96.78M2 93.314v15.026h15.22M112 93.314v15.026H96.78" stroke="#485BC1" stroke-width="2.717"/><defs><linearGradient id="a" x1="35.08" y1="81.209" x2="43.119" y2="81.209" gradientUnits="userSpaceOnUse"><stop stop-color="#E5C5D5"/><stop offset=".42" stop-color="#EAD4D1"/><stop offset="1" stop-color="#F0E9CB"/></linearGradient><linearGradient id="c" x1="35.08" y1="81.208" x2="43.119" y2="81.208" gradientUnits="userSpaceOnUse"><stop stop-color="#E5C5D5"/><stop offset=".42" stop-color="#EAD4D1"/><stop offset="1" stop-color="#F0E9CB"/></linearGradient><linearGradient id="d" x1="39.402" y1="84.258" x2="38.491" y2="69.732" gradientUnits="userSpaceOnUse"><stop stop-opacity="0"/><stop offset=".99"/></linearGradient><linearGradient id="e" x1="31.885" y1="73.257" x2="46.114" y2="73.257" gradientUnits="userSpaceOnUse"><stop stop-color="#E5C5D5"/><stop offset=".42" stop-color="#EAD4D1"/><stop offset="1" stop-color="#F0E9CB"/></linearGradient></defs></svg>