<svg width="114" height="110" fill="none" xmlns="http://www.w3.org/2000/svg"><path opacity=".18" d="M96.767 39.515h-73.04c-7.78 0-14.088 3.01-14.088 6.725v40.443c0 3.714 6.308 6.725 14.088 6.725h73.04c7.78 0 14.087-3.01 14.087-6.725V46.24c0-3.714-6.307-6.725-14.087-6.725Z" fill="#DBE4FC"/><path d="M12.005 76.126c2.73-5.597 5.601-11.367 10.147-15.157 5.124-4.284 11.72-5.482 18.062-5.943A99.264 99.264 0 0 1 67.39 56.79c1.709.303 3.39.78 5.023 1.428 3.987 1.693 7.245 5.044 10.147 8.626a15.699 15.699 0 0 1 2.679 4.423c.705 2.541.83 5.244.365 7.855-.304 2.695-.75 5.505-2.202 7.67-2.364 3.571-6.707 4.481-10.634 4.677-7.712.38-15.424-.98-23.136-.53-2.872.161-5.743.576-8.615.783-5.819.254-11.646.069-17.443-.553-2.537-.207-5.206-.472-7.316-2.096a10.808 10.808 0 0 1-2.573-3.283 12.175 12.175 0 0 1-1.253-4.157 37.19 37.19 0 0 1 .05-8.823" fill="#485BC1"/><path d="M41.849 46.154a13.425 13.425 0 0 1-1.676 5.078c-.772 1.31-1.808 2.55-1.879 4.194.01.977.22 1.942.62 2.834.969 3 2.487 5.793 4.479 8.236a9.617 9.617 0 0 0 10.155 3.047 6.316 6.316 0 0 0 2.448-1.422c2.244-2.173.62-6.48-.366-9.993-1.28-4.56.741-11.273 0-14.066a6.693 6.693 0 0 0-1.676-3.28 4.265 4.265 0 0 0-3.574-.924c-3.95.498-7.617 3.839-9.344 8.51" fill="url(#a)"/><path d="M49.812 56.383c1.61.218 3.507-.05 4.41-1.265.445-.74 1.055-3.084 1.03-3.924l.657-3.155c-.991.55-2.872.687-4.035.633-1.885.06-3.782.08-5.667.06-1.246 0-3.815-.554-4.885.207-1.775 1.276 2.889 5.091 4.025 5.813a11.34 11.34 0 0 0 4.465 1.631Z" fill="url(#b)"/><path d="M33.583 38.524a21.479 21.479 0 0 0 1.726 5.078 19.698 19.698 0 0 0 3.047 4.062 14.939 14.939 0 0 0 4.367 3.494 15.293 15.293 0 0 0 6.6 1.076c1.525.05 3.046-.159 4.5-.62 3.148-1.147 5.159-4.234 6.55-7.291a32.133 32.133 0 0 0 3.047-12.786 23.745 23.745 0 0 0-3.29-12.644 13.295 13.295 0 0 0-4.794-4.875 15.72 15.72 0 0 0-7.637-1.563 17.124 17.124 0 0 0-4.875.558 15.69 15.69 0 0 0-6.54 4.235 14.097 14.097 0 0 0-2.722 3.615c-2.782 5.454-1.3 12.004.02 17.661Z" fill="url(#c)"/><path d="M35.553 29.232a30.923 30.923 0 0 1-.883 8.744 20.22 20.22 0 0 1-3.474-6.946 22.34 22.34 0 0 1-1.157-4.174 22.796 22.796 0 0 1-.132-3.727c-.017-.892.075-1.782.274-2.65a3.677 3.677 0 0 1 1.483-2.154c.295-.137.567-.322.802-.548.192-.307.307-.655.335-1.016.325-2.366 1.554-4.773 3.737-5.738a22.094 22.094 0 0 1 3.677-1.483 33.869 33.869 0 0 1 15.172-.355c2.681.559 5.434 1.534 7.2 3.626a13.05 13.05 0 0 1 2.468 5.799 2.336 2.336 0 0 1-.172 2.03 4.843 4.843 0 0 0-.62.67c-.157.367-.179.778-.06 1.159.73 4.265.497 8.957-2.032 12.48a73.783 73.783 0 0 0-.904-10.987 3.046 3.046 0 0 0-.467-1.412c-.751-1.016-2.295-.833-3.554-.64-4.67.735-9.451.056-13.73-1.95a7.82 7.82 0 0 0-2.448-.893 2.193 2.193 0 0 0-2.224 1.015 12.815 12.815 0 0 0-.376 1.879 7.19 7.19 0 0 1-1.595 2.183 8.124 8.124 0 0 0-1.32 5.088Z" fill="#3E3E54"/><path d="M82.494 71.371c.12-1.18.865-2.188 2.074-2.806 1.188-.256 2.537-.166 3.815.256a76.61 76.61 0 0 1 7.712 2.416c.43.134.826.35 1.141.626.316.427.425.902.305 1.325a38.929 38.929 0 0 1-2.24 9.34c-.922 3.113-2.892 5.857-5.737 7.994-1.868 1.213-4.192 1.996-6.768 2.28-1.951.231-20.332-.488-22.181-1.799-12.997-3.883-14.98-9.172-29.281-13.662 1.359-2.31 14.686-1.716 15.768-4.153 1.188-2.716 34.56 1.04 35.392-1.817Z" fill="#485BC1"/><g filter="url(#d)"><path d="m63.663 32 37.454-.023.031 53.001-37.454.023-.031-53.002Z" fill="#fff"/></g><g filter="url(#e)"><path d="M79.237 68.598h7.341v8.864h-7.34v-8.864Z" fill="#fff"/><path d="M86.577 68.598v8.864h-7.34v-8.864h7.34Zm0-.073h-7.34a.072.072 0 0 0-.072.073v8.864a.072.072 0 0 0 .072.072h7.34a.072.072 0 0 0 .073-.072v-8.864a.073.073 0 0 0-.073-.073Z" fill="#231F20"/><path d="M80.51 72.481c-.206.33-.258.726-.285 1.116h5.555a.277.277 0 0 0 .008-.068c0-.402-.641-.516-.73-.888-.053-.217.09-.434.12-.66.05-.378-.216-.712-.388-1.053-.208-.42-.102-.951-.371-1.319-.357-.488-.935-.587-1.512-.587a2.282 2.282 0 0 0-.94.189c-.275.118-.4.388-.465.679-.11-.048-.24 0-.34.072-.443.302-.564.896-.477 1.397.042.24.13.487.058.722-.044.147-.151.267-.234.4Z" fill="#fff"/><path d="M86.599 75.141v2.376h-7.44v-2.374c.752-.653 1.83-.877 2.752-.95.356-.03.687-.036.968-.036h.066a11.004 11.004 0 0 1 .903.034c.923.075 1.998.3 2.75.95Z" fill="#DBE4FC"/><path d="m83.96 74.267-.766 2.515-.224.735h-.183l-.224-.738-.763-2.506a.02.02 0 0 0 0-.006c.515-.146 1.642-.146 2.16 0Z" fill="#231F20"/><path d="M81.934 74.369s.243.53.955.53a1.148 1.148 0 0 0 .995-.53l-.095-2.086h-1.764l-.091 2.086Z" fill="#fff"/><path d="M81.92 74.217v.18l.18.18.42.3s.33.033.54 0c.168-.026.24-.06.42-.12s.126-.034.24-.18c.054-.072.103-.095.12-.18.015-.084 0-.18 0-.18s-.099-.257-.128-.52c-.03-.264.053-.543-.229-.671a.982.982 0 0 0-.486-.06c-.336.032-.884.1-.878.379.018.807-.2.872-.2.872Z" fill="url(#f)"/><path d="M81.945 73.972a.945.945 0 0 0-.194.416c-.059.254-.103.624.007.885l.522-.186a2.78 2.78 0 0 1-.16-.6c-.032-.18-.063-.365-.041-.542.006-.028-.092-.021-.134.027ZM83.876 74.03c.089.149.138.316.145.485.02.282.003.68-.17.927l-.559-.329c.121-.183.22-.381.292-.589.068-.18.137-.366.144-.558-.001-.03.109.002.148.063Z" fill="#231F20"/><path d="m82.907 75.451-.335-.258.335-.26.336.26-.336.258Z" fill="#fff"/><path d="m83.193 76.763-.203.699h-.165l-.203-.702.166-1.4v-.001l.007-.049.004-.03h.218l.004.032.006.047.166 1.404Z" fill="#fff"/><path d="M80.425 77.499a.038.038 0 0 1-.037-.033l-.285-2.15c0-.01.003-.018.009-.025a.037.037 0 0 1 .063.014l.289 2.152a.038.038 0 0 1-.032.042h-.007ZM85.39 77.498h-.005a.038.038 0 0 1-.031-.042l.285-2.151a.038.038 0 0 1 .072.01l-.289 2.15a.038.038 0 0 1-.032.033Z" fill="#231F20"/><path d="M84.02 71.803c.058-.49.664-.61.634-.033a1.02 1.02 0 0 1-.162.54c-.103.145-.27.21-.406.129" fill="#fff"/><path d="M84.213 72.511c-.051 0-.101-.014-.145-.04a.038.038 0 0 1-.012-.052.037.037 0 0 1 .05-.012c.112.067.258.018.358-.117a.986.986 0 0 0 .154-.522c.01-.204-.062-.334-.196-.345-.153-.015-.334.138-.361.385a.038.038 0 0 1-.072-.01c.036-.298.258-.466.445-.45.138.013.28.13.263.424-.002.199-.06.394-.168.561a.397.397 0 0 1-.316.178Z" fill="#231F20"/><path d="M81.737 71.803c-.058-.49-.663-.61-.634-.033.002.192.058.38.162.54.103.145.27.21.406.129" fill="#fff"/><path d="M81.543 72.511a.396.396 0 0 1-.309-.177 1.063 1.063 0 0 1-.168-.563c-.016-.293.126-.41.264-.423.185-.016.409.152.444.45l-.001.015a.036.036 0 0 1-.032.027.038.038 0 0 1-.04-.032c-.03-.247-.213-.4-.362-.385-.133.011-.206.144-.195.345a.986.986 0 0 0 .154.522c.1.135.246.184.357.117a.037.037 0 0 1 .05.013.037.037 0 0 1-.011.05.281.281 0 0 1-.15.041Z" fill="#231F20"/><path d="M84.212 70.728v1.42a1.232 1.232 0 0 1-1.233 1.231h-.145a1.234 1.234 0 0 1-1.233-1.232v-1.346l.776-.064.089-.615.194.696.552-.072c.056-.247 0-.778-.01-.802l.398.745.612.04ZM84.02 76.064h1.208v.32H84.02v-.32Z" fill="#fff"/><path d="M82.927 72.3c-.059 0-.118-.004-.177-.011a.084.084 0 0 1-.062-.042c-.093-.154.148-.802.198-.93a.038.038 0 0 1 .05-.023.038.038 0 0 1 .022.05c-.108.284-.26.77-.204.866 0 .006.006.006.008.006.116.013.233.013.348 0a.038.038 0 0 1 .042.033.038.038 0 0 1-.032.042c-.064.006-.128.009-.193.008ZM99.4 68.54H77.037a.036.036 0 0 1-.025-.061.037.037 0 0 1 .025-.011h22.365c.01 0 .018.004.025.01.007.007.01.016.01.026 0 .01-.003.019-.01.025a.036.036 0 0 1-.025.011Z" fill="#231F20"/><path d="M97.29 70.526h-6.07a.154.154 0 1 0 0 .307h6.07a.154.154 0 1 0 0-.307ZM94.793 72.976H91.22a.154.154 0 1 0 0 .307h3.573a.154.154 0 1 0 0-.307ZM96.54 75.31h-5.32a.154.154 0 1 0 0 .307h5.32a.154.154 0 1 0 0-.307ZM95.837 77.645H91.22a.154.154 0 1 0 0 .307h4.617a.154.154 0 1 0 0-.307Z" fill="#D1D3D4"/><path d="M89.462 71.31v-.2a.434.434 0 0 0-.867 0v.2h.867Z" fill="#fff"/><path d="M89.463 71.346H88.6a.036.036 0 0 1-.036-.036v-.2a.468.468 0 1 1 .934 0v.2c0 .01-.004.019-.01.026a.037.037 0 0 1-.026.01Zm-.826-.072h.79v-.163a.395.395 0 1 0-.79 0v.163Z" fill="#D1D3D4"/><path d="M89.03 70.679a.307.307 0 1 0 0-.614.307.307 0 0 0 0 .614Z" fill="#fff"/><path d="M89.031 70.715a.343.343 0 1 1 0-.687.343.343 0 0 1 0 .687Zm0-.615a.271.271 0 1 0 0 .543.271.271 0 0 0 0-.543Z" fill="#D1D3D4"/><path d="M89.523 73.63h-1.09v-.78l.545-.314.545.313v.782Z" fill="#fff"/><path d="M89.523 73.67h-1.088a.036.036 0 0 1-.036-.037v-.784c0-.006.002-.012.005-.017a.036.036 0 0 1 .013-.014l.545-.313a.037.037 0 0 1 .036 0l.545.313c.005.003.01.008.013.013a.034.034 0 0 1 .005.018v.781a.035.035 0 0 1-.01.028.037.037 0 0 1-.028.011Zm-1.053-.073h1.017v-.722l-.506-.293-.505.293-.006.722Z" fill="#D1D3D4"/><path d="M88.79 73.084h.379v.547h-.38v-.547Z" fill="#fff"/><path d="M89.168 73.67h-.379a.036.036 0 0 1-.036-.036v-.548c0-.01.004-.018.01-.025a.036.036 0 0 1 .026-.01h.38a.036.036 0 0 1 .036.035v.547a.036.036 0 0 1-.037.036Zm-.343-.073h.307v-.474h-.307v.474Z" fill="#D1D3D4"/><path d="m88.265 72.94.713-.404.708.405" fill="#fff"/><path d="M89.686 72.977a.037.037 0 0 1-.017-.004l-.69-.395-.695.395a.036.036 0 0 1-.05-.014.034.034 0 0 1-.003-.027.035.035 0 0 1 .017-.022l.713-.405a.034.034 0 0 1 .036 0l.708.405a.036.036 0 0 1-.019.067ZM89.528 75.987h-1.084a.14.14 0 0 1-.14-.14v-.505a.14.14 0 0 1 .14-.14h1.084a.14.14 0 0 1 .14.14v.506a.14.14 0 0 1-.14.14Zm-1.084-.714a.067.067 0 0 0-.067.068v.505a.067.067 0 0 0 .067.067h1.084a.067.067 0 0 0 .067-.067v-.505a.067.067 0 0 0-.067-.068h-1.084Z" fill="#D1D3D4"/><path d="M88.852 75.041h.293a.124.124 0 0 1 .124.125v.072h-.54v-.072a.125.125 0 0 1 .123-.124Z" fill="#fff"/><path d="M89.268 75.273h-.54a.036.036 0 0 1-.037-.036v-.073a.16.16 0 0 1 .16-.16h.29a.161.161 0 0 1 .147.099c.008.02.013.04.012.061v.073a.037.037 0 0 1-.009.024.036.036 0 0 1-.023.012Zm-.506-.073h.468v-.035a.088.088 0 0 0-.088-.088h-.289a.088.088 0 0 0-.088.088l-.003.035Z" fill="#D1D3D4"/><path d="M88.626 77.303h.93v1.081h-.93v-1.081Z" fill="#fff"/><path d="M89.556 78.421h-.93a.036.036 0 0 1-.025-.01.036.036 0 0 1-.01-.026v-1.083a.036.036 0 0 1 .036-.036h.929a.036.036 0 0 1 .036.036v1.083c0 .01-.004.02-.01.026a.036.036 0 0 1-.026.01Zm-.893-.072h.856v-1.011h-.856v1.011Z" fill="#D1D3D4"/><path d="M88.397 77.145h.929v1.081h-.929v-1.081Z" fill="#fff"/><path d="M89.326 78.263h-.929a.036.036 0 0 1-.036-.036v-1.084a.036.036 0 0 1 .036-.036h.93a.036.036 0 0 1 .035.036v1.084a.036.036 0 0 1-.036.036Zm-.893-.073h.857v-1.01h-.855l-.002 1.01Z" fill="#D1D3D4"/><path d="M89.091 77.457h-.498a.036.036 0 0 1-.026-.011.036.036 0 0 1 0-.051.036.036 0 0 1 .026-.01h.498a.036.036 0 0 1 .037.035.037.037 0 0 1-.037.037ZM89.091 77.642h-.498a.036.036 0 0 1 0-.072h.498a.036.036 0 1 1 0 .072ZM89.091 77.82h-.498a.036.036 0 1 1 0-.072h.498a.037.037 0 0 1 .037.036.036.036 0 0 1-.037.036ZM89.091 78.003h-.498a.036.036 0 1 1 0-.072h.498c.01 0 .02.004.026.01a.037.037 0 0 1-.026.062Z" fill="#D1D3D4"/><path d="M98.393 66.958H77.971a.97.97 0 0 0-.971.97v11.169c0 .536.435.97.97.97h20.423a.97.97 0 0 0 .971-.97V67.929a.97.97 0 0 0-.97-.971Z" fill="#F7F5F5"/><path d="M98.43 80.14H78.007A1.011 1.011 0 0 1 77 79.133V67.965a1.01 1.01 0 0 1 1.008-1.007h20.421a1.011 1.011 0 0 1 1.008 1.007v11.168a1.011 1.011 0 0 1-1.008 1.007ZM78.007 67.03a.94.94 0 0 0-.936.935v11.168a.94.94 0 0 0 .936.935h20.421a.94.94 0 0 0 .936-.935V67.965a.94.94 0 0 0-.936-.935H78.008Z" fill="#231F20"/><path d="M79.28 68.758h6.959v8.759h-6.96v-8.76Z" fill="#fff"/><mask id="g" fill="#fff"><path d="M86.527 68.585v8.146H79.23v-8.146h7.296Zm0-.067H79.23a.075.075 0 0 0-.05.02.064.064 0 0 0-.021.047v8.146c0 .017.007.034.02.047.014.012.032.019.051.019h7.296c.019 0 .037-.007.05-.02a.064.064 0 0 0 .022-.046v-8.146a.064.064 0 0 0-.021-.047.075.075 0 0 0-.051-.02Z"/></mask><path d="M86.527 68.585v8.146H79.23v-8.146h7.296Zm0-.067H79.23a.075.075 0 0 0-.05.02.064.064 0 0 0-.021.047v8.146c0 .017.007.034.02.047.014.012.032.019.051.019h7.296c.019 0 .037-.007.05-.02a.064.064 0 0 0 .022-.046v-8.146a.064.064 0 0 0-.021-.047.075.075 0 0 0-.051-.02Z" fill="#D1D3D4"/><path d="M86.527 68.585h.265v-.266h-.265v.266Zm0 8.146v.265h.265v-.265h-.265Zm-7.296 0h-.265v.265h.266v-.265Zm0-8.146v-.266h-.265v.266h.266Zm7.03 0v8.146h.531v-8.146h-.53Zm.266 7.88H79.23v.53h7.296v-.53Zm-7.03.266v-8.146h-.53v8.146h.53Zm-.266-7.881h7.296v-.53H79.23v.53Zm7.296-.597H79.23v.53h7.296v-.53Zm-7.296 0a.34.34 0 0 0-.23.09l.36.39a.19.19 0 0 1-.13.05v-.53Zm-.23.09a.33.33 0 0 0-.107.242h.531c0 .06-.026.112-.064.147l-.36-.39Zm-.107.242v8.146h.531v-8.146h-.53Zm0 8.146a.33.33 0 0 0 .107.241l.36-.39a.201.201 0 0 1 .064.149h-.53Zm.107.241a.34.34 0 0 0 .23.09v-.53a.19.19 0 0 1 .13.05l-.36.39Zm.23.09h7.296v-.53H79.23v.53Zm7.296 0a.34.34 0 0 0 .23-.09l-.36-.39a.19.19 0 0 1 .13-.05v.53Zm.23-.09a.33.33 0 0 0 .107-.241h-.53c0-.06.025-.113.063-.148l.36.39Zm.107-.241v-8.146h-.53v8.146h.53Zm0-8.146a.33.33 0 0 0-.106-.242l-.36.39a.201.201 0 0 1-.065-.148h.53Zm-.106-.242a.34.34 0 0 0-.231-.09v.53a.19.19 0 0 1-.13-.05l.36-.39Z" fill="#000" mask="url(#g)"/><path d="M80.51 72.481c-.206.33-.258.726-.285 1.116h5.555a.277.277 0 0 0 .008-.068c0-.402-.641-.516-.73-.888-.053-.217.09-.434.12-.66.05-.378-.216-.712-.388-1.053-.208-.42-.102-.951-.371-1.319-.357-.488-.935-.587-1.512-.587a2.282 2.282 0 0 0-.94.189c-.275.118-.4.388-.465.679-.11-.048-.24 0-.34.072-.443.302-.564.896-.477 1.397.042.24.13.487.058.722-.044.147-.151.267-.234.4Z" fill="#fff"/><path d="M81.934 74.369s.243.53.955.53a1.148 1.148 0 0 0 .995-.53l-.095-2.086h-1.764l-.091 2.086Z" fill="#fff"/><path d="M81.92 74.217v.18l.18.18.42.3s.33.033.54 0c.168-.026.24-.06.42-.12s.126-.034.24-.18c.054-.072.103-.095.12-.18.015-.084 0-.18 0-.18s-.099-.257-.128-.52c-.03-.264.053-.543-.229-.671a.982.982 0 0 0-.486-.06c-.336.032-.884.1-.878.379.018.807-.2.872-.2.872Z" fill="url(#h)"/><path d="M85.999 74.585v1.612h-6v-1.61c.606-.444 1.477-.595 2.22-.645.286-.02.554-.024.78-.024h.053a10.48 10.48 0 0 1 .728.023c.744.05 1.612.202 2.219.644Z" fill="#485BC1"/><path d="M84.02 71.803c.058-.49.664-.61.634-.033a1.02 1.02 0 0 1-.162.54c-.103.145-.27.21-.406.129" fill="#fff"/><path d="M84.213 72.512c-.051 0-.101-.014-.145-.04a.037.037 0 0 1-.012-.051.037.037 0 0 1 .05-.012c.112.065.258.017.358-.12a.985.985 0 0 0 .154-.52c.01-.205-.062-.334-.196-.346-.153-.014-.334.139-.361.385a.038.038 0 0 1-.072-.01c.036-.298.258-.465.445-.45.138.013.28.13.263.424-.002.2-.06.394-.168.562a.397.397 0 0 1-.316.178Z" fill="#231F20"/><path d="M81.737 71.803c-.058-.49-.663-.61-.634-.033.002.192.058.38.162.54.103.145.27.21.406.129" fill="#fff"/><path d="M81.543 72.512a.396.396 0 0 1-.309-.178 1.063 1.063 0 0 1-.168-.562c-.016-.294.126-.411.264-.423.185-.016.409.151.444.45l-.001.014a.036.036 0 0 1-.032.027.038.038 0 0 1-.04-.032c-.03-.246-.213-.4-.362-.385-.133.012-.206.145-.195.345a.985.985 0 0 0 .154.522c.1.136.246.184.357.118a.037.037 0 0 1 .05.012.037.037 0 0 1-.011.051.282.282 0 0 1-.15.04Z" fill="#231F20"/><path d="M84.212 70.728v1.42a1.232 1.232 0 0 1-1.233 1.231h-.145a1.234 1.234 0 0 1-1.233-1.232v-1.346l.776-.064.089-.615.194.696.552-.072c.056-.247 0-.778-.01-.802l.398.745.612.04Z" fill="#fff"/><path d="M82.927 72.3c-.059 0-.118-.004-.177-.011a.084.084 0 0 1-.062-.042c-.093-.154.148-.802.198-.93a.038.038 0 0 1 .05-.023.038.038 0 0 1 .022.05c-.108.284-.26.77-.204.866 0 .006.006.006.008.006.116.013.233.013.348 0a.038.038 0 0 1 .042.033.038.038 0 0 1-.032.042c-.064.006-.128.009-.193.008ZM99.4 78.14H77.037a.036.036 0 0 1-.036-.037c0-.01.004-.019.01-.025a.037.037 0 0 1 .026-.011h22.365c.01 0 .018.004.025.01.007.007.01.017.01.026a.036.036 0 0 1-.035.036Z" fill="#231F20"/><path d="M97.29 70.526h-6.07a.154.154 0 1 0 0 .307h6.07a.154.154 0 1 0 0-.307ZM94.885 73.317h-3.573a.154.154 0 1 0 0 .307h3.573a.154.154 0 1 0 0-.307ZM95.792 75.356h-5.32a.154.154 0 1 0 0 .308h5.32a.154.154 0 1 0 0-.308Z" fill="#D1D3D4"/><path d="M98.43 54.036H78.007a.97.97 0 0 0-.97.971v11.168c0 .536.434.97.97.97H98.43a.97.97 0 0 0 .971-.97V55.007a.97.97 0 0 0-.97-.97Z" fill="#F3F3F3"/><path d="M98.43 67.182H78.007A1.012 1.012 0 0 1 77 66.175V55.007A1.011 1.011 0 0 1 78.008 54h20.421a1.012 1.012 0 0 1 1.008 1.007v11.168a1.011 1.011 0 0 1-1.008 1.007Zm-20.422-13.11a.94.94 0 0 0-.936.935v11.168a.94.94 0 0 0 .936.935h20.421a.939.939 0 0 0 .936-.935V55.007a.94.94 0 0 0-.936-.935H78.008Z" fill="#231F20"/><path d="M96.894 63.118H86.502c-.145 0-.263.215-.263.48s.118.48.263.48h10.392c.145 0 .263-.215.263-.48s-.118-.48-.263-.48Z" fill="#D1D3D4"/><path d="M99.652 70.802c-.647 0-1.205-.426-1.297-.991a1.04 1.04 0 0 1 .255-.867.252.252 0 0 0 .048-.264.316.316 0 0 0-.225-.185c-.487-.125-.854-.505-.936-.969-.092-.524.208-1.037.725-1.249.133-.055.211-.177.19-.302-.02-.124-.135-.223-.282-.246a1.098 1.098 0 0 1-.95-1.189c.051-.521.46-.95.991-1.043.13-.023.232-.105.262-.212a.264.264 0 0 0-.112-.293c-.385-.272-.558-.675-.463-1.075.126-.53-.087-.155.658-.663.092 0 .952-.268 1.044-.253l2.013.365c.374.06.698.24.905.504.194.25.266.545.198.832-.082.34-.324.554-.514.673a.273.273 0 0 0-.137.238c0 .093.055.18.143.234.368.22.572.62.532 1.044a1.175 1.175 0 0 1-.457.81.286.286 0 0 0-.112.208c0 .081.037.156.102.211.232.192.378.435.426.705.085.481-.147.948-.593 1.191a.282.282 0 0 0-.156.235.276.276 0 0 0 .139.244c.3.185.494.46.545.777.106.632-.392 1.22-1.11 1.313l-1.644.209c-.062.003-.127.008-.188.008Z" fill="#92897F" fill-opacity=".4"/><path d="M97.303 69.838h-8.45c-.118 0-.214.215-.214.48s.096.48.214.48h8.45c.118 0 .215-.215.215-.48s-.097-.48-.215-.48Z" fill="#D1D3D4"/><path d="M99.4 55.872H77.037a.036.036 0 0 1-.036-.036c0-.01.004-.019.01-.025a.037.037 0 0 1 .026-.011h22.365a.037.037 0 0 1 .036.036.036.036 0 0 1-.036.036Z" fill="#231F20"/><path d="M97.303 71.757h-8.45c-.118 0-.214.215-.214.48s.096.48.214.48h8.45c.118 0 .215-.215.215-.48s-.097-.48-.215-.48ZM97.303 74.037h-8.45c-.118 0-.214.215-.214.48s.096.48.214.48h8.45c.118 0 .215-.215.215-.48s-.097-.48-.215-.48ZM97.303 76.077h-8.45c-.118 0-.214.215-.214.48s.096.48.214.48h8.45c.118 0 .215-.215.215-.48s-.097-.48-.215-.48ZM93.034 59.04H81.843c-.157 0-.284.214-.284.48 0 .264.127.48.284.48h11.191c.157 0 .284-.215.284-.48 0-.266-.127-.48-.284-.48ZM88.291 57.6h-4.225c-.06 0-.107.08-.107.18 0 .099.048.18.107.18h4.225c.06 0 .107-.081.107-.18 0-.1-.048-.18-.107-.18Z" fill="#D1D3D4"/><path d="M89.527 75.236h-1.085a.103.103 0 0 0-.103.104v.507c0 .057.046.103.103.103h1.085a.103.103 0 0 0 .103-.103v-.507a.103.103 0 0 0-.103-.104Z" fill="#fff"/><path d="M93.45 61.799h-4.225c-.059 0-.107.08-.107.18 0 .1.048.18.107.18h4.225c.06 0 .108-.08.108-.18 0-.1-.048-.18-.108-.18Z" fill="#D1D3D4"/><path d="M82.078 73.457s.345.906.955.813c.61-.093.61-.573.61-.573l-.066-.524-1.5.284Z" fill="url(#i)"/><path d="M84.94 71.954a.597.597 0 0 1-.13.203.642.642 0 0 1-.201.14.368.368 0 0 1-.133.032 2.11 2.11 0 0 1-.348.715 1.728 1.728 0 0 1-.974.648 1.404 1.404 0 0 1-.603.014 1.36 1.36 0 0 1-.547-.24c-.279-.221-.44-.553-.557-.881-.013-.035-.024-.072-.036-.107a.176.176 0 0 1-.06.031.416.416 0 0 1-.389-.076.622.622 0 0 1-.083-.094.683.683 0 0 1-.157-.323.221.221 0 0 1 .014-.113.254.254 0 0 1 .129-.089.27.27 0 0 1 .16.002.656.656 0 0 1 .207.073 3.552 3.552 0 0 1-.12-.813c0-.369.523-.806.836-.966.346-.149.732-.195 1.106-.13.21.018.413.076.598.17.247.162.448.377.588.626.114.162.205.339.268.524.03.098.048.2.052.302a.527.527 0 0 1 .217-.144.11.11 0 0 1 .078 0c.02.011.036.028.045.049.074.138.088.299.04.447Z" fill="url(#j)"/><path d="M80.963 70.224a.947.947 0 0 1 .33-.562c.126-.08.268-.136.418-.162a5.767 5.767 0 0 1 2.077-.086c.232.013.453.098.628.242.231.229.14.587.173.903.103 1.136-.121 1.015-.156 1.308-.117-.316-.212-1.095-.532-1.24a1.43 1.43 0 0 0-.557-.09c-.31-.006-1.215-.05-1.602.31-.442.413-.347 1.243-.346 1.317 0 .159-.478-.828-.5-1.02a2.507 2.507 0 0 1 .067-.92Z" fill="#3E3E54"/><circle cx="81.919" cy="63.599" r="2.76" fill="#E6E6E6"/><circle cx="81.919" cy="63.719" r="2.147" fill="#fff" stroke="#000" stroke-width=".265"/><circle cx="81.979" cy="63.658" r="2.3" fill="#D1D3D4" stroke="#000" stroke-width=".08" stroke-dasharray="1.33 1.33"/><circle cx="81.98" cy="63.659" r="1.82" fill="#E6E6E6" stroke="#000" stroke-width=".08"/></g><path d="M99.657 68.959c-.646 0-1.203-.446-1.295-1.037a1.124 1.124 0 0 1 .255-.907.273.273 0 0 0 .047-.276.32.32 0 0 0-.224-.194 1.278 1.278 0 0 1-.935-1.013 1.206 1.206 0 0 1 .724-1.306c.133-.058.21-.185.19-.316-.02-.13-.135-.233-.282-.258a1.138 1.138 0 0 1-.948-1.243c.05-.546.459-.995.99-1.091a.324.324 0 0 0 .26-.222.283.283 0 0 0-.111-.306c-.384-.285-.558-.707-.463-1.125.126-.555-.086-.162.658-.693.092 0 .95-.28 1.041-.265l2.01.382c.374.063.697.251.904.527.194.261.265.57.197.87-.081.355-.322.58-.513.704a.29.29 0 0 0-.136.249c0 .097.055.188.143.245.367.23.571.65.53 1.092-.03.33-.193.63-.455.846a.304.304 0 0 0-.112.218c0 .085.037.164.102.222.231.2.377.455.424.737.085.503-.146.991-.591 1.246a.296.296 0 0 0-.156.246c-.004.1.047.194.139.254.299.194.493.482.544.813.105.661-.391 1.277-1.108 1.374l-1.642.218c-.061.003-.126.009-.187.009Z" fill="url(#k)"/><path d="M99.657 68.959c-.646 0-1.203-.446-1.295-1.037a1.124 1.124 0 0 1 .255-.907.273.273 0 0 0 .047-.276.32.32 0 0 0-.224-.194 1.278 1.278 0 0 1-.935-1.013 1.206 1.206 0 0 1 .724-1.306c.133-.058.21-.185.19-.316-.02-.13-.135-.233-.282-.258a1.138 1.138 0 0 1-.948-1.243c.05-.546.459-.995.99-1.091a.324.324 0 0 0 .26-.222.283.283 0 0 0-.111-.306c-.384-.285-.558-.707-.463-1.125.126-.555-.086-.162.658-.693.092 0 .95-.28 1.041-.265l2.01.382c.374.063.697.251.904.527.194.261.265.57.197.87-.081.355-.322.58-.513.704a.29.29 0 0 0-.136.249c0 .097.055.188.143.245.367.23.571.65.53 1.092-.03.33-.193.63-.455.846a.304.304 0 0 0-.112.218c0 .085.037.164.102.222.231.2.377.455.424.737.085.503-.146.991-.591 1.246a.296.296 0 0 0-.156.246c-.004.1.047.194.139.254.299.194.493.482.544.813.105.661-.391 1.277-1.108 1.374l-1.642.218c-.061.003-.126.009-.187.009Z" fill="url(#l)"/><path d="M77.678 37.912c-.092 0-.182-.01-.27-.028a.712.712 0 0 1-.204-.083c-.051-.036-.075-.077-.072-.12.004-.06.017-.09.039-.094a.452.452 0 0 1 .154.005c.125.026.26.028.403.006.143-.023.277-.061.402-.116a.954.954 0 0 0 .292-.188c.1-.095.143-.19.132-.286-.007-.096-.064-.178-.17-.248a.838.838 0 0 0-.2-.094 1.61 1.61 0 0 0-.253-.066.703.703 0 0 0-.198-.022.314.314 0 0 1-.083 0 .452.452 0 0 1-.099-.044.687.687 0 0 1-.099-.154c-.004-.019.005-.037.028-.055.025-.019.078-.05.16-.094.08-.048.205-.118.374-.21a8.57 8.57 0 0 0 .579-.336c.055-.036.099-.07.132-.099.066-.088.1-.145.1-.17 0-.026-.049-.048-.144-.067a7.471 7.471 0 0 0-.265-.016c-.084-.004-.126.001-.126.016h-.022c-.019-.007-.06-.005-.122.006a2.697 2.697 0 0 0-.181.038c-.056.015-.085.028-.089.039-.003.007-.025.02-.066.038a1.062 1.062 0 0 1-.187.056.198.198 0 0 1-.066-.056.67.67 0 0 1-.055-.099c-.015-.037-.019-.064-.011-.083.007-.014.029-.033.066-.055.04-.025.086-.051.137-.077.052-.03.098-.053.138-.071.052-.015.123-.026.215-.034.096-.007.191-.01.287-.01a1.91 1.91 0 0 1 .21 0 .78.78 0 0 1 .39.132c.092.07.15.163.171.28a.411.411 0 0 1 .011.128.21.21 0 0 1-.05.104c-.029.033-.08.083-.154.15a8.518 8.518 0 0 0-.226.148c-.058.04-.147.092-.264.154l-.105.072-.121.082c-.037.023-.055.037-.055.045l.022.016a.555.555 0 0 1 .116.083.83.83 0 0 1 .292.176c.088.08.15.147.187.199a.637.637 0 0 1-.05.633.963.963 0 0 1-.292.254 1.704 1.704 0 0 1-.738.215ZM80.589 38.055c-.011.007-.026.007-.044 0a.144.144 0 0 1-.061-.033.769.769 0 0 1-.072-.055.096.096 0 0 1-.027-.05.337.337 0 0 1 .01-.11 15.2 15.2 0 0 0 .05-.248 4.684 4.684 0 0 1 .1-.402l.022-.077c.018-.008.044-.063.077-.166.037-.103.077-.228.121-.375a19.46 19.46 0 0 1 .188-.611 6.64 6.64 0 0 0 .082-.287l.033-.132-.082.05c-.052.029-.118.07-.199.12-.08.048-.16.102-.237.16a2.524 2.524 0 0 0-.226.155 2.45 2.45 0 0 1-.226.16c-.099.077-.16.121-.182.132-.022.007-.05.002-.082-.017a.344.344 0 0 1-.1-.126.14.14 0 0 1 .012-.121 2.654 2.654 0 0 1 .424-.287c.01 0 .031-.013.06-.039.03-.025.061-.05.094-.071.019-.022.083-.072.193-.15.11-.076.23-.163.358-.258.136-.085.25-.153.342-.204.096-.051.15-.075.165-.072a.337.337 0 0 1 .121.077.125.125 0 0 1 .04.067c.021.025.01.084-.034.176a9.93 9.93 0 0 0-.182.48l-.11.33-.083.276c-.03.114-.057.202-.082.264a9.195 9.195 0 0 1-.067.182c-.018.055-.04.132-.066.231a2.42 2.42 0 0 0-.082.226 7.009 7.009 0 0 0-.121.474c-.03.081-.054.153-.072.215-.019.063-.037.101-.055.116ZM82.144 37.713a.53.53 0 0 1-.177.039.306.306 0 0 1-.148-.066c-.07-.066-.094-.133-.072-.199a.46.46 0 0 1 .182-.204.441.441 0 0 1 .143-.066.324.324 0 0 1 .149.039c.11.07.158.147.143.231-.01.085-.084.16-.22.226ZM83.936 37.884a.376.376 0 0 1-.121-.033 3.951 3.951 0 0 1-.165-.088 1.047 1.047 0 0 1-.144-.105 1.007 1.007 0 0 1-.204-.28 1.281 1.281 0 0 1-.115-.354 1.134 1.134 0 0 1-.006-.369c.04-.235.129-.466.265-.694a2.228 2.228 0 0 1 .727-.766.936.936 0 0 1 .524-.132.663.663 0 0 1 .408.154c.051.04.077.079.077.116a.26.26 0 0 1-.006.06c-.004.011-.02.01-.05-.005h-.055l.056.16c.014.029.027.07.038.12a.591.591 0 0 1 .017.133c0 .033-.006.086-.017.16a3.49 3.49 0 0 1-.044.226c-.018.08-.037.156-.055.226-.018.07-.035.121-.05.154a.236.236 0 0 0-.022.066v.05a2.076 2.076 0 0 0-.071.149c-.03.073-.052.124-.066.154l-.039.038c-.007.011-.004.024.011.039 0 .007-.01.031-.027.072a.968.968 0 0 1-.061.104c-.019.033-.033.05-.044.05l-.017.005c-.007 0-.01.006-.01.017 0 .015-.025.053-.073.116a2.463 2.463 0 0 1-.17.187 1.03 1.03 0 0 1-.155.121c-.062.04-.125.076-.187.105a.378.378 0 0 1-.149.044Zm-.016-.347c.04 0 .079-.006.115-.017a.275.275 0 0 0 .094-.06c.066-.044.143-.116.232-.215.088-.103.152-.202.192-.298a.71.71 0 0 0 .094-.17 6.97 6.97 0 0 0 .116-.315c.03-.04.05-.09.06-.149a.833.833 0 0 0 .017-.148v-.166a.74.74 0 0 1 .028-.176c0-.096-.002-.158-.006-.187a.17.17 0 0 0-.044-.094.304.304 0 0 0-.06-.033.159.159 0 0 0-.072-.017.467.467 0 0 0-.144.044.888.888 0 0 0-.148.067.104.104 0 0 1-.089.005c-.029-.01-.044-.026-.044-.044 0-.051-.033-.055-.099-.011a.94.94 0 0 0-.22.21 1.44 1.44 0 0 0-.171.203.397.397 0 0 0-.066.122.13.13 0 0 1-.017.055.787.787 0 0 0-.033.077.755.755 0 0 0-.066.127l-.077.176a1.101 1.101 0 0 0-.044.127v.297c0 .063.002.116.005.16a.774.774 0 0 0 .028.116c.01.03.026.062.044.099a.764.764 0 0 0 .132.165c.04.037.074.06.1.066a.502.502 0 0 0 .143-.016ZM86.092 38.1a.189.189 0 0 1-.116-.073.57.57 0 0 1-.082-.137c-.015-.07.014-.191.088-.364.073-.176.172-.382.297-.617.081-.133.12-.21.116-.232-.004-.022-.038-.033-.105-.033a2.236 2.236 0 0 0-.115-.022c-.044-.01-.072-.024-.083-.038-.059-.03-.094-.061-.105-.094-.007-.037.006-.057.039-.06.015-.008.02-.017.017-.028a.068.068 0 0 1 0-.039.07.07 0 0 1 .038 0l.055.011h.281c.03 0 .055.002.077.006.052.007.087.003.105-.011.018-.019.053-.061.105-.127.03-.051.075-.12.138-.204.062-.088.117-.178.165-.27.176-.25.274-.417.292-.502.022-.084-.02-.123-.127-.115a.897.897 0 0 0-.198.038 7.9 7.9 0 0 0-.314.11 2.458 2.458 0 0 1-.287.11.193.193 0 0 1-.138-.016.087.087 0 0 1-.055-.033.233.233 0 0 1-.022-.072c0-.029.002-.056.006-.082.007-.04.082-.085.226-.132a7.23 7.23 0 0 1 .496-.144c.084-.014.165-.024.242-.027a.825.825 0 0 1 .198.01c.06.012.096.032.11.061l.012.017c.01.007.018.004.022-.011.014.004.026.018.033.044a.485.485 0 0 0 .044.088.613.613 0 0 1 .066.138.242.242 0 0 1 0 .127.444.444 0 0 1-.055.12.327.327 0 0 1-.06.078.186.186 0 0 0-.045.05l-.01.027c-.004.015-.016.03-.034.044a.223.223 0 0 0-.055.05.137.137 0 0 1-.028.05.24.24 0 0 0-.021.044 2.654 2.654 0 0 0-.303.457c-.052.048-.078.083-.078.105 0 .022.024.044.072.066a.528.528 0 0 1 .154.093c.04.034.068.076.083.127.004.074-.006.116-.028.127-.018.026-.047.037-.088.033-.037-.004-.06-.013-.072-.027-.01-.023-.036-.043-.077-.061a.487.487 0 0 0-.182-.066.124.124 0 0 0-.044.044 5.38 5.38 0 0 1-.05.06c-.025.037-.06.098-.104.182a7.713 7.713 0 0 1-.22.414.112.112 0 0 1-.033.055.185.185 0 0 0-.033.066.42.42 0 0 0-.04.116.593.593 0 0 0-.016.132c0 .037.006.057.017.06.03-.007.05-.003.06.011.015.012.026.032.034.061.018.026.013.057-.017.094a.345.345 0 0 1-.116.083.202.202 0 0 1-.132.027ZM88.198 37.713a.53.53 0 0 1-.176.039.306.306 0 0 1-.149-.066c-.07-.066-.094-.133-.072-.199a.46.46 0 0 1 .182-.204.441.441 0 0 1 .144-.066.324.324 0 0 1 .148.039c.11.07.158.147.144.231-.011.085-.085.16-.22.226ZM89.324 37.873a.868.868 0 0 1-.066-.038 10.684 10.684 0 0 1-.083-.072.38.38 0 0 1-.055-.077c-.011-.019-.011-.052 0-.1.015-.047.03-.071.044-.071.011.007.03-.006.055-.039a2.5 2.5 0 0 0 .077-.104.274.274 0 0 0 .039-.072.05.05 0 0 1 .027-.033.554.554 0 0 0 .05-.033.508.508 0 0 1 .072-.088c.033-.033.059-.06.077-.083.03-.037.082-.092.16-.165.077-.074.152-.15.226-.226.077-.085.145-.158.203-.22.06-.067.09-.113.094-.139l.017-.016a.255.255 0 0 1 .05-.039.533.533 0 0 0 .07-.055.889.889 0 0 0 .084-.071.46.46 0 0 1 .06-.122.907.907 0 0 1 .11-.137c.03-.044.057-.092.083-.144a.928.928 0 0 0 .05-.12c.01-.041.01-.065 0-.073a.524.524 0 0 0-.138-.055.662.662 0 0 0-.64.11.811.811 0 0 0-.143.045.198.198 0 0 1-.104.022.154.154 0 0 1-.05-.05.572.572 0 0 0-.06-.072l-.056-.115.171-.094c.15-.095.287-.162.408-.198a.572.572 0 0 1 .342-.006c.04 0 .077.006.11.017l.05.01c.029-.003.066.014.11.05a.69.69 0 0 1 .126.127.61.61 0 0 1 .1.154.351.351 0 0 1 .055.281.998.998 0 0 1-.166.348 6.856 6.856 0 0 1-.551.6 8.219 8.219 0 0 1-.12.127.556.556 0 0 0-.133.116c-.059.062-.123.132-.193.21-.066.073-.123.139-.17.198-.045.055-.063.082-.056.082-.004.015.002.022.017.022a1.97 1.97 0 0 1 .287-.077c.091-.018.185-.033.28-.044a2.55 2.55 0 0 1 .248-.028c.074-.003.116 0 .127.011.007.019.013.026.016.023l.011-.011c.008-.026.054-.033.138-.023.088.011.167.028.237.05.04.011.072.02.094.028.026.007.038.018.038.033l.011.027c.011.015.028.035.05.06.059.049.066.08.022.095-.044.014-.14.009-.286-.017-.096 0-.175.006-.237.017a.252.252 0 0 1-.094.01 1.65 1.65 0 0 0-.138.006.603.603 0 0 0-.198.011 1.745 1.745 0 0 0-.237.06c-.033.012-.085.028-.155.05-.07.022-.145.044-.226.066-.08.023-.154.04-.22.05-.062.011-.103.015-.121.011ZM92.472 37.884a.376.376 0 0 1-.122-.033 3.951 3.951 0 0 1-.165-.088 1.047 1.047 0 0 1-.143-.105 1.007 1.007 0 0 1-.204-.28 1.281 1.281 0 0 1-.116-.354 1.134 1.134 0 0 1-.005-.369c.04-.235.128-.466.264-.694a2.226 2.226 0 0 1 .728-.766.936.936 0 0 1 .523-.132.663.663 0 0 1 .408.154c.051.04.077.079.077.116a.26.26 0 0 1-.005.06c-.004.011-.02.01-.05-.005h-.055l.055.16c.015.029.027.07.039.12a.591.591 0 0 1 .016.133c0 .033-.005.086-.016.16-.011.07-.026.145-.044.226-.019.08-.037.156-.056.226-.018.07-.034.121-.05.154a.232.232 0 0 0-.021.066v.05a2.076 2.076 0 0 0-.072.149c-.03.073-.051.124-.066.154l-.039.038c-.007.011-.003.024.011.039 0 .007-.009.031-.027.072a.951.951 0 0 1-.06.104c-.02.033-.034.05-.045.05l-.016.005c-.008 0-.011.006-.011.017 0 .015-.024.053-.072.116a2.463 2.463 0 0 1-.17.187 1.03 1.03 0 0 1-.155.121 1.6 1.6 0 0 1-.188.105.378.378 0 0 1-.148.044Zm-.017-.347c.04 0 .08-.006.116-.017a.275.275 0 0 0 .094-.06c.066-.044.143-.116.231-.215.088-.103.152-.202.193-.298a.71.71 0 0 0 .094-.17 6.97 6.97 0 0 0 .115-.315c.03-.04.05-.09.06-.149a.833.833 0 0 0 .017-.148v-.166a.74.74 0 0 1 .028-.176c0-.096-.002-.158-.006-.187a.17.17 0 0 0-.044-.094.304.304 0 0 0-.06-.033.159.159 0 0 0-.072-.017.467.467 0 0 0-.143.044.888.888 0 0 0-.149.067.104.104 0 0 1-.088.005c-.03-.01-.044-.026-.044-.044 0-.051-.033-.055-.1-.011a.94.94 0 0 0-.22.21 1.44 1.44 0 0 0-.17.203.397.397 0 0 0-.067.122.13.13 0 0 1-.016.055.787.787 0 0 0-.033.077.755.755 0 0 0-.067.127l-.077.176a1.101 1.101 0 0 0-.044.127v.297c0 .063.002.116.006.16a.774.774 0 0 0 .027.116c.011.03.026.062.044.099a.764.764 0 0 0 .133.165c.04.037.073.06.099.066a.502.502 0 0 0 .143-.016ZM94.286 37.873a.87.87 0 0 1-.066-.038 9.035 9.035 0 0 1-.083-.072.385.385 0 0 1-.055-.077c-.011-.019-.011-.052 0-.1.015-.047.03-.071.044-.071.011.007.03-.006.055-.039a2.5 2.5 0 0 0 .077-.104.27.27 0 0 0 .039-.072.05.05 0 0 1 .027-.033.569.569 0 0 0 .05-.033.503.503 0 0 1 .072-.088c.033-.033.058-.06.077-.083a1.93 1.93 0 0 1 .16-.165c.077-.074.152-.15.225-.226l.204-.22c.06-.067.09-.113.094-.139l.017-.016a.258.258 0 0 1 .05-.039.54.54 0 0 0 .07-.055.9.9 0 0 0 .084-.071.457.457 0 0 1 .06-.122.895.895 0 0 1 .11-.137c.03-.044.057-.092.083-.144a.914.914 0 0 0 .05-.12c.01-.041.01-.065 0-.073a.525.525 0 0 0-.138-.055.662.662 0 0 0-.64.11.814.814 0 0 0-.143.045.198.198 0 0 1-.104.022.154.154 0 0 1-.05-.05.563.563 0 0 0-.06-.072l-.056-.115.171-.094a1.71 1.71 0 0 1 .408-.198.572.572 0 0 1 .342-.006c.04 0 .077.006.11.017l.05.01c.029-.003.066.014.11.05a.688.688 0 0 1 .126.127.608.608 0 0 1 .1.154.351.351 0 0 1 .055.281.999.999 0 0 1-.166.348 6.86 6.86 0 0 1-.551.6 8.563 8.563 0 0 1-.121.127.554.554 0 0 0-.132.116 14.42 14.42 0 0 0-.193.21c-.066.073-.123.139-.17.198-.045.055-.063.082-.056.082-.004.015.002.022.016.022a1.973 1.973 0 0 1 .287-.077c.092-.018.186-.033.281-.044a2.55 2.55 0 0 1 .248-.028c.074-.003.116 0 .127.011.007.019.013.026.016.023l.011-.011c.008-.026.054-.033.138-.023.088.011.167.028.237.05.04.011.072.02.094.028.026.007.038.018.038.033l.011.027c.011.015.028.035.05.06.059.049.066.08.022.095-.044.014-.14.009-.286-.017-.096 0-.175.006-.238.017a.252.252 0 0 1-.093.01 1.65 1.65 0 0 0-.138.006.603.603 0 0 0-.198.011 1.75 1.75 0 0 0-.237.06 12.21 12.21 0 0 1-.38.117c-.081.021-.155.038-.221.05a.43.43 0 0 1-.121.01ZM96.767 37.873a.868.868 0 0 1-.066-.038 10.684 10.684 0 0 1-.083-.072.385.385 0 0 1-.055-.077c-.011-.019-.011-.052 0-.1.015-.047.03-.071.044-.071.011.007.03-.006.055-.039a2.5 2.5 0 0 0 .077-.104.274.274 0 0 0 .039-.072.05.05 0 0 1 .027-.033.554.554 0 0 0 .05-.033.508.508 0 0 1 .072-.088c.033-.033.058-.06.077-.083.03-.037.082-.092.16-.165.077-.074.152-.15.225-.226l.204-.22c.06-.067.09-.113.094-.139l.017-.016a.255.255 0 0 1 .05-.039.54.54 0 0 0 .07-.055.9.9 0 0 0 .084-.071.46.46 0 0 1 .06-.122.9.9 0 0 1 .11-.137c.03-.044.057-.092.083-.144a.928.928 0 0 0 .05-.12c.01-.041.01-.065 0-.073a.524.524 0 0 0-.138-.055.662.662 0 0 0-.64.11.811.811 0 0 0-.143.045.198.198 0 0 1-.104.022.154.154 0 0 1-.05-.05.572.572 0 0 0-.06-.072l-.056-.115.171-.094c.15-.095.287-.162.408-.198a.572.572 0 0 1 .342-.006c.04 0 .077.006.11.017l.05.01c.029-.003.066.014.11.05a.69.69 0 0 1 .126.127.61.61 0 0 1 .1.154.351.351 0 0 1 .055.281.998.998 0 0 1-.166.348 6.967 6.967 0 0 1-.551.6 8.563 8.563 0 0 1-.121.127.554.554 0 0 0-.132.116 14.42 14.42 0 0 0-.193.21c-.066.073-.123.139-.171.198-.044.055-.062.082-.055.082-.004.015.002.022.017.022a1.977 1.977 0 0 1 .287-.077c.09-.018.185-.033.28-.044a2.55 2.55 0 0 1 .248-.028c.073-.003.116 0 .127.011.007.019.013.026.016.023l.011-.011c.008-.026.054-.033.138-.023.088.011.167.028.237.05.04.011.072.02.094.028.025.007.038.018.038.033l.011.027c.011.015.028.035.05.06.059.049.066.08.022.095-.044.014-.14.009-.287-.017-.095 0-.174.006-.236.017a.252.252 0 0 1-.094.01 1.65 1.65 0 0 0-.138.006.603.603 0 0 0-.198.011 1.742 1.742 0 0 0-.237.06c-.033.012-.085.028-.155.05-.07.022-.145.044-.226.066-.08.023-.154.04-.22.05-.063.011-.103.015-.121.011ZM71.76 43.97c-.01.004-.033-.001-.069-.015a1.981 1.981 0 0 1-.118-.059.633.633 0 0 1-.094-.074 2.034 2.034 0 0 1-.075-.099.254.254 0 0 1-.03-.123.42.42 0 0 1-.039-.154c0-.056-.001-.11-.005-.163a.545.545 0 0 1 .055-.252c.04-.089.07-.154.094-.197a.848.848 0 0 1 .098-.178 1.48 1.48 0 0 1 .193-.222.922.922 0 0 1 .237-.168 1.06 1.06 0 0 1 .158-.065.281.281 0 0 1 .193.01c.036.01.063.023.08.04a.811.811 0 0 0 .054.05c.026-.02.047-.068.064-.144.02-.08.031-.168.034-.267.007-.102.002-.2-.014-.291a.558.558 0 0 0-.346-.44.444.444 0 0 0-.326.03.26.26 0 0 1-.11-.095.164.164 0 0 1-.024-.138.64.64 0 0 1 .099-.07.348.348 0 0 1 .119-.044.997.997 0 0 1 .138-.02c.05-.003.1.01.153.04.171.056.3.135.386.237a.8.8 0 0 1 .182.361c.033.142.053.305.06.49.006.052.008.1.005.143 0 .04-.005.107-.015.202a.204.204 0 0 0-.04.153.259.259 0 0 1-.02.158.285.285 0 0 1-.04.139.194.194 0 0 0-.034.104c-.059.164-.14.326-.242.484a1.9 1.9 0 0 1-.34.41.959.959 0 0 1-.42.227Zm-.03-.321c.034.013.083 0 .149-.04.066-.042.133-.098.202-.168.07-.072.127-.141.173-.207a.916.916 0 0 0 .065-.114c.03-.052.056-.103.079-.153a.794.794 0 0 0 .094-.326c.006-.076-.002-.125-.025-.148-.036-.043-.096-.053-.178-.03a.733.733 0 0 0-.227.114.609.609 0 0 0-.144.158c-.04.063-.08.12-.123.173a.067.067 0 0 1-.02.06.618.618 0 0 1-.044.049 1.006 1.006 0 0 0-.104.36c0 .053.008.107.025.163.016.056.042.093.079.109ZM72.934 43.906a.197.197 0 0 0-.074-.025 4.275 4.275 0 0 0-.074-.01.551.551 0 0 1-.06-.069.352.352 0 0 1-.03-.089.078.078 0 0 1 .01-.054.545.545 0 0 1 .03-.045c.01 0 .022.002.035.005h.04a.993.993 0 0 0 .148-.138 2.037 2.037 0 0 0 .257-.35c.036-.067.066-.136.089-.208.01-.03.016-.06.02-.09a.256.256 0 0 1 .024-.088c.02-.04.035-.08.044-.119l.04-.123a1.706 1.706 0 0 0-.114-.02.174.174 0 0 1-.064-.035 2.552 2.552 0 0 1-.084-.074c-.003-.046.002-.079.015-.099.013-.023.044-.04.094-.054a.399.399 0 0 1 .06-.015c.019-.006.039-.01.058-.01a1.196 1.196 0 0 1 .223 0 .667.667 0 0 1 .079.015l.079.02c.03.01.06.023.089.04.03.013.06.024.089.034a.154.154 0 0 1 .064.025l.064.044c.06.036.106.083.139.139.033.052.049.112.049.178a.901.901 0 0 1-.044.286 4.02 4.02 0 0 1-.055.188 4.145 4.145 0 0 1-.094.311 1.185 1.185 0 0 0-.044.237 1.79 1.79 0 0 1-.015.124l-.04.01a.72.72 0 0 0-.039.014 4.458 4.458 0 0 0-.114-.039c-.04-.017-.067-.051-.084-.104v-.02a.109.109 0 0 0 .005-.034v-.06a1.455 1.455 0 0 1 .08-.345c.026-.066.047-.13.064-.193l.049-.193a1.096 1.096 0 0 0 .035-.183.259.259 0 0 0-.025-.123.37.37 0 0 0-.104-.06.454.454 0 0 0-.118-.034.295.295 0 0 1-.035.074.068.068 0 0 0-.005.03c0 .01-.003.016-.01.02a.094.094 0 0 0-.04.054l-.01.064a.292.292 0 0 1-.039.099.092.092 0 0 0-.024.054l-.01.065a.7.7 0 0 1-.035.143 1.731 1.731 0 0 1-.064.153 1.468 1.468 0 0 0-.104.188.117.117 0 0 0-.025.04 3.182 3.182 0 0 1-.054.103.455.455 0 0 1-.07.089 5.15 5.15 0 0 0-.128.133.659.659 0 0 1-.143.124ZM74.569 43.975a.328.328 0 0 1-.104-.015.196.196 0 0 1-.064-.05.634.634 0 0 1-.074-.153.193.193 0 0 1 .044-.078c.023-.027.055-.028.094-.005.007 0 .013.003.02.01a.162.162 0 0 0 .025.02.847.847 0 0 0 .296-.218c.08-.092.155-.194.227-.306a.644.644 0 0 1-.168-.08.373.373 0 0 1-.113-.113.47.47 0 0 1-.064-.188.404.404 0 0 0-.025-.118.653.653 0 0 0 .054-.168.89.89 0 0 1 .04-.134.711.711 0 0 1 .227-.287.967.967 0 0 1 .153-.103.274.274 0 0 1 .109-.04c.036.014.07.012.104-.005a.116.116 0 0 1 .098-.005.145.145 0 0 0 .035.005c.013-.003.023-.003.03 0a.94.94 0 0 1 .217.07.23.23 0 0 1 .124.163c-.017.069-.035.138-.055.207a.822.822 0 0 1-.079.198 5.355 5.355 0 0 0-.099.197.924.924 0 0 1-.113.188l.01.03.133.025.089.01c.036.01.068.026.094.049.03.02.06.043.094.069a.08.08 0 0 1 0 .04 14.455 14.455 0 0 1-.133.267 4.78 4.78 0 0 0-.114.222.715.715 0 0 0-.035.123.414.414 0 0 1-.04.119.549.549 0 0 1-.059.054c-.006.003-.013.002-.02-.005-.006-.006-.024-.01-.054-.01a.122.122 0 0 1-.094-.074.227.227 0 0 0-.03-.064.098.098 0 0 1-.004-.07.988.988 0 0 1 .044-.108c.026-.053.05-.105.07-.158.02-.053.04-.104.063-.153a.073.073 0 0 0 .02-.055h-.034a1.96 1.96 0 0 0-.07-.01.482.482 0 0 0-.079-.014 1.445 1.445 0 0 1-.059.044c-.023.013-.041.038-.054.074-.036.04-.071.084-.104.134a.809.809 0 0 1-.109.133l-.128.129c-.04.042-.084.085-.133.128a.352.352 0 0 1-.203.08Zm.593-1.028c.016-.003.04-.023.069-.059a3.565 3.565 0 0 0 .193-.262.621.621 0 0 0 .064-.123l.044-.129a11.224 11.224 0 0 0 .08-.207c-.043-.03-.078-.045-.104-.045a.282.282 0 0 0-.094.02.66.66 0 0 0-.475.464.4.4 0 0 0 .02.282c.043.073.11.092.203.06ZM77.516 43.891a.385.385 0 0 1-.074-.064c-.016-.02-.023-.048-.02-.084.007-.05.017-.1.03-.153.013-.056.03-.11.05-.163.01-.06.02-.119.034-.178a.558.558 0 0 1 .079-.168c.056-.158.107-.312.153-.46.05-.151.115-.33.198-.533a.393.393 0 0 1 .044-.08.71.71 0 0 0 .045-.059c.003-.013.013-.02.03-.02.02-.003.04 0 .064.01a.104.104 0 0 1 .054.035c.013-.003.031.018.054.064.027.046.036.083.03.109a.212.212 0 0 1-.01.054.229.229 0 0 1-.03.065.231.231 0 0 0-.04.059 1.677 1.677 0 0 1-.058.094l-.084.232a5.688 5.688 0 0 1-.084.212.387.387 0 0 0-.055.134l-.04.163c-.022.06-.044.114-.063.163a.424.424 0 0 0-.025.094 1.745 1.745 0 0 0-.055.217.6.6 0 0 1-.064.183c-.003.05-.018.082-.044.099-.023.016-.063.008-.119-.025Zm1.181.08a.386.386 0 0 1-.118-.03 3.191 3.191 0 0 1-.149-.104 6.037 6.037 0 0 1-.543-.687l.202-.272c.043.053.078.102.104.148a.476.476 0 0 0 .064.094c.076.112.135.203.178.272.046.07.087.125.124.168.036.043.074.08.113.114.043.033.096.067.159.104.01.006.02.016.03.03.009.012.012.032.009.058-.013.037-.028.06-.044.07a.891.891 0 0 1-.129.034Zm-.825-.875a.192.192 0 0 1 .02-.168.33.33 0 0 1 .118-.124.107.107 0 0 1 .04-.044c.016-.01.026-.022.03-.035a.219.219 0 0 1 .049-.054 2.27 2.27 0 0 0 .079-.065 4.242 4.242 0 0 0 .534-.395 1.29 1.29 0 0 0 .084-.069.063.063 0 0 1 .04-.025c.019-.006.043-.003.073.01.04.01.066.026.08.05.012.02.019.059.019.118.01.036-.005.076-.044.119a.897.897 0 0 1-.168.133 1.881 1.881 0 0 0-.222.168 1.342 1.342 0 0 0-.105.07c-.042.029-.08.059-.113.088a.648.648 0 0 0-.104.09.503.503 0 0 1-.129.088c-.105.099-.174.152-.207.158-.033.007-.058-.031-.074-.113ZM79.094 45.107h-.05c-.02.003-.038-.01-.054-.04a.14.14 0 0 1-.025-.074c0-.033.008-.092.025-.178a1.57 1.57 0 0 0 .064-.365.34.34 0 0 0 .015-.08.34.34 0 0 0 .04-.108.596.596 0 0 0 .014-.124c0-.04.02-.076.06-.108a.42.42 0 0 1 .014-.1 4.367 4.367 0 0 1 .084-.321 16.644 16.644 0 0 1 .415-1.195 1.236 1.236 0 0 0 .104-.39c0-.014.003-.024.01-.03a.67.67 0 0 1 .044-.055c.033-.032.061-.042.085-.03a.703.703 0 0 1 .093.06c.027.043.045.08.055.109.013.03.013.08 0 .153 0 .05-.008.092-.025.128a.623.623 0 0 1-.044.084c-.014.017-.017.024-.01.02a.942.942 0 0 1 .355-.099.436.436 0 0 1 .262.055c.073.04.127.095.163.168a.525.525 0 0 1 .03.395.745.745 0 0 1-.129.242c-.013 0-.026.012-.039.035a.62.62 0 0 0-.04.069.672.672 0 0 1-.128.113c-.056.04-.112.073-.168.1-.056.022-.097.029-.123.02 0 0-.005 0-.015.004-.007 0-.01.008-.01.025 0 .006-.027.021-.08.044-.052.02-.113.04-.182.06a.8.8 0 0 1-.183.024c-.07 0-.118-.013-.148-.04a.298.298 0 0 0-.025.03.08.08 0 0 0-.01.035c0 .02-.008.058-.025.114-.013.052-.03.103-.049.153-.02.05-.038.074-.054.074l-.01.015c-.007.01-.003.023.01.04l-.005.054c0 .04-.008.072-.025.098a.706.706 0 0 1-.015.119.475.475 0 0 1-.034.119.33.33 0 0 1-.02.113c-.01.04-.022.06-.035.06-.013.003-.021.023-.024.059-.004.04-.005.067-.005.084a.385.385 0 0 1-.05.193c-.03.046-.064.069-.103.069Zm.597-1.65c.027 0 .081-.012.163-.035.083-.023.167-.051.252-.084a.75.75 0 0 0 .198-.109.815.815 0 0 0 .198-.257.27.27 0 0 0-.01-.282c-.026-.046-.074-.064-.143-.054a.586.586 0 0 0-.228.08c-.082.045-.16.103-.232.172a.742.742 0 0 0-.109.158c-.033.063-.06.125-.084.188a.735.735 0 0 0-.034.158c-.004.043.006.064.03.064ZM82.489 43.94a.461.461 0 0 1-.252-.222 1.042 1.042 0 0 1-.114-.326.336.336 0 0 0-.08.07l-.172.172a1.83 1.83 0 0 1-.217.178.313.313 0 0 1-.208.064 3.599 3.599 0 0 1-.084-.054l-.079-.07a.38.38 0 0 1-.034-.039.889.889 0 0 1-.08-.306.787.787 0 0 1 .025-.232c.023-.08.05-.167.08-.262l.034-.124.079-.247c.03-.092.058-.174.084-.247a.529.529 0 0 1 .064-.128h.03a.145.145 0 0 1 .035-.005c.032 0 .057.011.074.034.013.02.03.035.049.045.023.01.04.023.05.04.016.032.004.103-.035.212-.04.105-.082.225-.129.36a3.66 3.66 0 0 0-.108.371.57.57 0 0 0-.005.306c.023 0 .054-.02.094-.059a.897.897 0 0 1 .098-.089.68.68 0 0 0 .129-.113l.163-.178c.053-.063.089-.11.109-.144.013-.02.033-.056.059-.108.026-.056.053-.116.079-.178.03-.066.053-.127.07-.183a.295.295 0 0 0 .024-.119c-.003-.032 0-.057.01-.074a.191.191 0 0 1 .06-.054h.053c.02 0 .038.002.055.005.02.023.041.044.064.064l.07.064a.452.452 0 0 1-.03.252c-.037.106-.073.22-.11.341-.035.122-.058.246-.068.37a.432.432 0 0 0 .099.322.833.833 0 0 0 .158-.084c.04-.03.077-.06.113-.089a.835.835 0 0 1 .139-.099c.032.02.057.06.074.119.016.06.024.107.024.143l-.04.03a.075.075 0 0 0-.024.03.351.351 0 0 1-.118.128.878.878 0 0 1-.188.104.266.266 0 0 1-.173.01ZM84.566 43.817a.28.28 0 0 1-.114-.054.238.238 0 0 1-.069-.109.213.213 0 0 1 0-.129c.017-.056.031-.11.044-.163a1.03 1.03 0 0 0 .035-.163.633.633 0 0 1 .035-.128c.023-.06.046-.124.069-.193a.611.611 0 0 0 .034-.193.329.329 0 0 0-.014-.103.122.122 0 0 0-.06-.074.498.498 0 0 0-.192-.075 6.296 6.296 0 0 1-.198-.034.213.213 0 0 0-.07 0 .444.444 0 0 1-.093 0l-.03.109c-.01.036-.018.072-.024.108a8.075 8.075 0 0 0-.09.292l-.044.183a1.62 1.62 0 0 1-.034.118c-.01.04-.028.1-.055.183-.01.033-.018.064-.025.094a.33.33 0 0 1-.034.089.08.08 0 0 0-.01.034v.035a.114.114 0 0 1-.02.064.167.167 0 0 1-.04.045.171.171 0 0 1-.049.025.272.272 0 0 0-.054.024.277.277 0 0 1-.07-.074.679.679 0 0 0-.059-.084l.055-.237.05-.193a.415.415 0 0 1 .039-.104c.016-.02.026-.057.03-.113a.574.574 0 0 1 .044-.163.197.197 0 0 1 .015-.1l.04-.098a.588.588 0 0 0 .039-.183 1.83 1.83 0 0 1 .03-.192.231.231 0 0 1 .083-.045.428.428 0 0 1 .094-.015l.01-.03a.489.489 0 0 1 .01-.034.36.36 0 0 1 .208-.054c.085 0 .156.011.212.034a.08.08 0 0 0 .025.005l.03.005a.418.418 0 0 1 .118.035.708.708 0 0 1 .232.138c.07.063.116.134.139.213.026.079.04.16.04.242a1.213 1.213 0 0 1-.06.34 6.863 6.863 0 0 0-.084.267 1 1 0 0 0-.02.11c0 .029.007.057.02.083a.72.72 0 0 0 .054.09.234.234 0 0 1-.04.073c-.02.03-.042.045-.069.045a.08.08 0 0 0-.059.024.123.123 0 0 1-.054.03ZM85.584 43.758a.416.416 0 0 1-.099-.09.24.24 0 0 1-.044-.147c0-.033.006-.09.02-.168.013-.08.03-.168.054-.267.023-.1.046-.191.069-.277.033-.06.06-.118.084-.178a.483.483 0 0 0 .034-.108 6.92 6.92 0 0 1 .025-.139 2.9 2.9 0 0 1 .04-.143.258.258 0 0 1 .03-.074.102.102 0 0 1 .059-.03.087.087 0 0 1 .069.01c.026.01.046.031.06.064.035.04.053.087.053.144a.813.813 0 0 1-.054.237c-.03.066-.06.143-.089.232-.03.089-.056.171-.079.247-.02.072-.031.122-.034.148l-.1.03c.057-.053.11-.107.159-.163.05-.06.086-.106.109-.139a4.517 4.517 0 0 1 .306-.376.409.409 0 0 1 .193-.137.576.576 0 0 1 .153-.03c.072.013.13.05.173.113a.528.528 0 0 1 .074.43l-.01.094.079-.103c.056-.07.13-.145.222-.228a.382.382 0 0 1 .183-.079c.06-.01.112.01.158.06a.331.331 0 0 1 .168.212c.027.092.033.21.02.356a.79.79 0 0 0-.005.192c.007.04.017.08.03.119.026.013.031.041.015.084-.017.04-.037.06-.06.06a.392.392 0 0 1-.113-.02.306.306 0 0 1-.109-.065.192.192 0 0 1-.045-.133v-.306a1.3 1.3 0 0 0-.01-.178c-.003-.047-.01-.075-.024-.084-.036-.02-.089.001-.158.064-.07.062-.144.146-.223.252a4.397 4.397 0 0 0-.222.326 1.48 1.48 0 0 1-.119.178c-.013.013-.037.008-.074-.015-.072-.023-.118-.054-.138-.094a.234.234 0 0 1-.005-.143c.017-.056.036-.132.06-.227l.074-.277c.023-.092.037-.158.044-.198-.013-.026-.036-.034-.07-.024a.268.268 0 0 0-.093.044.685.685 0 0 0-.143.148 3.02 3.02 0 0 0-.173.252c-.04.063-.081.125-.124.188-.043.06-.082.112-.118.158a.803.803 0 0 1-.094.104c-.046.072-.078.112-.094.118-.017.007-.048-.001-.094-.024ZM88.616 43.97a.246.246 0 0 1-.104-.01 1.77 1.77 0 0 1-.099-.054.702.702 0 0 1-.163-.168.316.316 0 0 1-.044-.173.16.16 0 0 0 0-.079l-.005-.035c-.02-.016-.027-.026-.02-.03a.062.062 0 0 0 .015-.029c.026-.007.03-.025.01-.054-.01-.027-.005-.086.014-.178a1.582 1.582 0 0 1 .159-.41 2.595 2.595 0 0 1 .217-.326c.072-.083.137-.144.193-.183a.81.81 0 0 1 .197-.104.642.642 0 0 1 .143-.044c.03-.004.071.016.124.059a.383.383 0 0 1 .178.099c.043.04.076.102.099.188.026.095.034.209.025.34-.007.129-.063.295-.169.5a1.174 1.174 0 0 1-.187.291c-.06.066-.132.135-.218.208a1.15 1.15 0 0 1-.173.123.693.693 0 0 1-.192.07Zm.395-.588c.066-.099.117-.19.153-.272.04-.085.071-.192.094-.32a.708.708 0 0 0-.02-.287c-.01-.046-.025-.071-.044-.074a.213.213 0 0 0-.144 0 .387.387 0 0 0-.172.118 1.39 1.39 0 0 0-.154.223 2.301 2.301 0 0 0-.118.271c-.036.1-.071.205-.104.317-.033.125-.031.22.005.286.04.066.104.082.193.05.089-.037.192-.14.311-.312ZM90.195 43.975a1.517 1.517 0 0 0-.075-.04l-.069-.039a.466.466 0 0 1-.193-.242.623.623 0 0 1-.02-.217c.007-.07.017-.129.03-.178a.545.545 0 0 0 .02-.109.116.116 0 0 1 .015-.074l.04-.08c.059-.114.113-.213.163-.296.052-.085.128-.184.227-.296l.054-.045a.184.184 0 0 1 .06-.034l.113.084c.013.013.022.03.025.05.003.016 0 .039-.01.068a.58.58 0 0 1-.054.124.63.63 0 0 0-.134.178 12.75 12.75 0 0 1-.103.193c0 .03-.012.054-.035.074a.098.098 0 0 0-.04.074.25.25 0 0 1-.01.069 2.372 2.372 0 0 0-.02.074.326.326 0 0 0-.029.153c.003.05.005.1.005.153.026.014.05.022.07.025.019 0 .045-.016.078-.05a.678.678 0 0 0 .208-.276c.016-.043.04-.092.069-.148a.868.868 0 0 0 .084-.213c.023-.085.04-.166.05-.242a.4.4 0 0 0 0-.158.127.127 0 0 1 .004-.06c.007-.022-.003-.045-.03-.068.014-.014.02-.038.02-.075a.69.69 0 0 0-.01-.113.187.187 0 0 0-.03-.084 26.18 26.18 0 0 1-.014-.331c0-.093.002-.172.005-.237.007-.07.015-.134.025-.193a.851.851 0 0 1 .059-.099.93.93 0 0 1 .109-.138.567.567 0 0 1 .227-.114.676.676 0 0 1 .252-.035c-.003.004.016.005.06.005a2.62 2.62 0 0 0 .276-.014l.08-.02a.635.635 0 0 0 .132-.064c.027-.017.048-.022.065-.015l.133.113c-.003.093-.026.162-.069.208-.043.043-.125.07-.247.084h-.064a.164.164 0 0 0-.07.005.077.077 0 0 1-.054 0 .137.137 0 0 0-.06-.01.467.467 0 0 0-.113.015.314.314 0 0 1-.123-.005.721.721 0 0 0-.277.133c-.066.056-.099.148-.099.277.013.122.03.23.05.326.023.096.034.201.034.316a.33.33 0 0 0 .025.075c.01.02.005.04-.015.064.016.075.025.15.025.222 0 .07-.01.122-.03.158a.67.67 0 0 0-.015.129.42.42 0 0 1-.05.187 3.947 3.947 0 0 1-.231.415c-.08.119-.18.22-.302.302a.282.282 0 0 1-.084.03c-.03.006-.067.016-.113.03ZM91.413 43.822a.148.148 0 0 0-.05-.06c-.019-.016-.029-.03-.029-.044a.162.162 0 0 0-.005-.04.062.062 0 0 0-.02-.044c-.016-.02-.014-.064.005-.133.02-.073.053-.16.1-.262.045-.105.1-.216.162-.331a.57.57 0 0 0 .08-.104.539.539 0 0 1 .058-.084c0-.013.005-.025.015-.035.01-.013.022-.02.035-.02v-.029c0-.016.015-.044.044-.084.033-.04.073-.082.119-.128a1.879 1.879 0 0 1 .267-.237.502.502 0 0 1 .212-.084c.076-.01.14.006.193.049l.05.05.079.078a2.3 2.3 0 0 1 .098.084l.183.163-.089.247a.69.69 0 0 0-.034.346.907.907 0 0 0 .098.257c.017.036.05.071.1.104a.387.387 0 0 0 .147.06.16.16 0 0 1 .075.029c.023.016.034.043.034.079a.14.14 0 0 1-.02.08c-.013.019-.036.032-.069.039a.433.433 0 0 1-.306-.08.908.908 0 0 1-.257-.326.8.8 0 0 1-.089-.217l-.074.094a1.736 1.736 0 0 1-.084.094c-.234.237-.437.397-.608.48-.168.078-.308.081-.42.009Zm.178-.277c0 .023.035.023.104 0a.844.844 0 0 0 .232-.138c.112-.096.224-.201.336-.316a2.47 2.47 0 0 0 .277-.322l.108-.177a.345.345 0 0 0-.108-.154c-.037-.03-.068-.044-.094-.044-.043 0-.107.04-.193.119a2.367 2.367 0 0 0-.267.316 3.94 3.94 0 0 0-.272.435c-.032.066-.062.13-.088.192l-.035.09ZM94.741 43.946a.39.39 0 0 0-.06-.015l-.058-.02a.258.258 0 0 0-.06-.015.239.239 0 0 1-.04-.168c.007-.07.022-.14.045-.212l.074-.213a.637.637 0 0 0 .045-.178c-.004-.013-.008-.016-.015-.01-.007.004-.01.009-.01.015a.18.18 0 0 1-.099.055c-.043.01-.082.018-.118.024a3.763 3.763 0 0 0-.37.08.724.724 0 0 1-.065-.05c-.023 0-.043.021-.06.064a1.048 1.048 0 0 0-.044.158 14.233 14.233 0 0 1-.07.287.489.489 0 0 1-.113.005 1.226 1.226 0 0 1-.113-.03.216.216 0 0 1-.045-.104c0-.033.005-.069.015-.108l.04-.183c.013-.046.034-.106.064-.178.016-.036.031-.07.044-.104a.284.284 0 0 0 .025-.118.283.283 0 0 0 .054-.11c.01-.039.022-.078.035-.118.052-.135.094-.239.123-.311.033-.076.056-.135.07-.178a.587.587 0 0 0 .024-.118c.004-.047.032-.07.084-.07.033 0 .068.014.104.04a.242.242 0 0 1 .084.089c.02.036.021.074.005.114l-.05.128c-.02.056-.042.119-.069.188a5.854 5.854 0 0 1-.118.311.073.073 0 0 1-.02.035c-.01.006-.015.018-.015.034.023.017.061.023.114.02a.337.337 0 0 0 .118-.03h.292c.05.03.087.074.114.134a18.591 18.591 0 0 0 .207-.558c.036-.103.058-.18.064-.233a.18.18 0 0 1 .04-.079.244.244 0 0 1 .064-.054c.046.023.09.043.133.059.047.013.076.051.09.114a.43.43 0 0 1-.02.089l-.03.079c-.033.095-.074.2-.124.316-.049.112-.095.227-.138.346-.04.115-.067.224-.084.326 0 .01-.008.043-.025.099-.013.056-.028.11-.044.163a.47.47 0 0 1-.025.084.113.113 0 0 1-.02.064.216.216 0 0 1-.049.044ZM95.553 43.891a.38.38 0 0 1-.074-.064c-.016-.02-.023-.048-.02-.084a1.41 1.41 0 0 1 .08-.316c.01-.06.02-.119.034-.178a.56.56 0 0 1 .08-.168c.055-.158.106-.312.152-.46.05-.151.116-.33.198-.533a.392.392 0 0 1 .044-.08.71.71 0 0 0 .045-.059c.003-.013.013-.02.03-.02.02-.003.04 0 .064.01a.104.104 0 0 1 .054.035c.013-.003.031.018.054.064.027.046.037.083.03.109a.212.212 0 0 1-.01.054.231.231 0 0 1-.03.065.231.231 0 0 0-.039.059 1.62 1.62 0 0 1-.06.094l-.083.232a5.361 5.361 0 0 1-.084.212.389.389 0 0 0-.055.134l-.04.163c-.022.06-.044.114-.063.163a.43.43 0 0 0-.025.094 1.744 1.744 0 0 0-.054.217.598.598 0 0 1-.065.183c-.003.05-.018.082-.044.099-.023.016-.063.008-.119-.025Zm1.181.08a.387.387 0 0 1-.118-.03 3.264 3.264 0 0 1-.149-.104c-.04-.04-.093-.1-.163-.183a6.194 6.194 0 0 1-.38-.504l.202-.272c.043.053.078.102.104.148a.485.485 0 0 0 .064.094c.076.112.136.203.178.272.046.07.088.125.124.168.036.043.074.08.114.114.042.033.095.067.158.104.01.006.02.016.03.03.01.012.012.032.01.058-.014.037-.029.06-.045.07a.894.894 0 0 1-.129.034Zm-.825-.875a.192.192 0 0 1 .02-.168.33.33 0 0 1 .118-.124.107.107 0 0 1 .04-.044c.016-.01.026-.022.03-.035a.217.217 0 0 1 .049-.054 2.26 2.26 0 0 0 .079-.065 4.242 4.242 0 0 0 .534-.395c.046-.036.074-.06.084-.069a.063.063 0 0 1 .04-.025c.019-.006.044-.003.073.01.04.01.066.026.08.05.013.02.02.059.02.118.009.036-.006.076-.045.119a.904.904 0 0 1-.168.133 1.885 1.885 0 0 0-.222.168 1.365 1.365 0 0 0-.104.07c-.043.029-.081.059-.114.088a.652.652 0 0 0-.104.09.506.506 0 0 1-.128.088c-.106.099-.175.152-.208.158-.033.007-.058-.031-.074-.113ZM97.743 43.857a.443.443 0 0 1-.103.01.938.938 0 0 1-.114-.015c-.03-.01-.044-.02-.044-.03 0-.017-.009-.025-.025-.025l-.025-.02a.217.217 0 0 0-.064-.039.27.27 0 0 1-.045-.148c0-.056.015-.144.045-.262a.931.931 0 0 1 .094-.287 2.887 2.887 0 0 1 .45-.652c.088-.092.169-.16.241-.203a.247.247 0 0 1 .168-.074.344.344 0 0 1 .188.045.347.347 0 0 1 .1.079 1.131 1.131 0 0 1 .167.247c.01.036.015.07.015.099a1.59 1.59 0 0 1-.015.277c-.016.059-.031.131-.044.217a1.97 1.97 0 0 0-.015.222c-.007.063 0 .107.02.134.023.026.056.028.098.005a.21.21 0 0 1 .114-.025c.036 0 .064.01.084.03.023.02.035.049.035.088 0 .04-.02.081-.06.124a.506.506 0 0 1-.138.104.341.341 0 0 1-.153.04c-.037 0-.071-.022-.104-.065a.84.84 0 0 1-.089-.163 13.336 13.336 0 0 1-.064-.188l-.03-.113-.212.202a2.32 2.32 0 0 1-.129.129.46.46 0 0 0-.074.079.272.272 0 0 1-.094.089.887.887 0 0 1-.178.089Zm.015-.292c.056-.033.12-.08.193-.143a2.635 2.635 0 0 0 .385-.43 1.18 1.18 0 0 0 .129-.213.982.982 0 0 0 .064-.187.45.45 0 0 0-.064-.114c-.03-.043-.056-.066-.08-.07-.072 0-.15.047-.232.14a3.6 3.6 0 0 0-.355.474l-.04.059a.927.927 0 0 0-.06.113l-.078.183a.389.389 0 0 0-.04.119c0 .02.002.041.005.064.007.023.023.038.05.045.026.006.067-.007.123-.04ZM67.7 51.472c-.238-.154-.398-.29-.481-.406-.083-.11-.05-.213.1-.307.033-.022.085-.002.157.058.077.056.141.108.19.158.111.1.247.16.407.182.166.028.351.014.556-.041.232-.072.433-.171.605-.299a2.9 2.9 0 0 0 .497-.48c.116-.15.197-.31.24-.481.045-.177.062-.34.05-.49-.005-.149-.035-.254-.09-.315a1.044 1.044 0 0 0-.581-.398c-.243-.077-.53-.072-.862.017a3.914 3.914 0 0 0-.381.083 1.55 1.55 0 0 1-.1.016.281.281 0 0 0-.092.042c-.022.011-.05.052-.083.124a7.254 7.254 0 0 0-.132.365c-.06.172-.152.426-.274.763-.116.337-.21.578-.282.721-.066.139-.127.202-.182.191-.05-.017-.113-.077-.19-.182a.656.656 0 0 1-.084-.224.43.43 0 0 1 .067-.266c.027-.05.05-.094.066-.132.017-.044.039-.12.066-.224.028-.083.08-.227.158-.431a194.395 194.395 0 0 1 .986-2.446c.117-.266.213-.49.29-.672.078-.171.125-.296.142-.373.016-.077.01-.119-.017-.124a.121.121 0 0 0-.025-.075c-.016-.028-.022-.053-.016-.075 0-.022.036-.052.107-.09.078-.04.16-.075.25-.109.093-.033.165-.044.215-.033h.1c.038-.005.057-.02.057-.041a2.1 2.1 0 0 0 .158-.017c.088-.01.185-.01.29 0 .37.033.658.141.862.324.205.176.304.42.299.73-.006.093-.055.22-.15.38-.088.16-.198.321-.331.481-.127.16-.252.296-.373.407l-.232.19a7.084 7.084 0 0 1-.29.216l.066.025c.044.017.091.033.14.05.255.094.465.212.63.356.167.144.28.343.34.597a.712.712 0 0 1 0 .307 2.845 2.845 0 0 1-.074.365c-.033.116-.069.215-.108.298a.482.482 0 0 0-.09.125l-.034.058a.622.622 0 0 1-.066.132 5.73 5.73 0 0 1-.158.24c-.06.09-.119.167-.174.233-.055.044-.121.097-.199.157-.072.061-.155.12-.249.175a1.565 1.565 0 0 1-.29.14c-.155.067-.323.111-.506.133-.177.028-.345.03-.505.009a.928.928 0 0 1-.39-.117Zm.406-3.192.15-.025c.104-.022.218-.044.34-.066a1.94 1.94 0 0 0 .265-.075l.116-.066a.652.652 0 0 0 .166-.124c.077-.072.174-.174.29-.307.121-.138.24-.282.356-.431a2.8 2.8 0 0 0 .266-.415c.127-.199.196-.345.207-.44a.3.3 0 0 0-.091-.256c-.05-.061-.136-.1-.257-.116a1.38 1.38 0 0 0-.373-.017 1.43 1.43 0 0 0-.34.05.463.463 0 0 0-.166.083c-.039.027-.058.072-.058.132 0 .05-.017.1-.05.15a.608.608 0 0 1-.083.107.257.257 0 0 1-.041.108l-.034.042c0 .022-.038.113-.116.273-.077.16-.154.346-.232.556-.1.238-.177.431-.232.58-.055.144-.083.23-.083.257ZM71.31 50.734a.418.418 0 0 1-.1-.165.608.608 0 0 1-.017-.2.455.455 0 0 1 .041-.165.23.23 0 0 1 .017-.1c.017-.027.022-.052.017-.074a.256.256 0 0 1 .016-.116 5.2 5.2 0 0 1 .05-.158c.039-.088.08-.193.124-.315.045-.127.086-.252.125-.373a73.889 73.889 0 0 0 .149-.481c0-.066.044-.102.133-.108.066-.022.116-.022.149 0 .033.017.077.07.133.158.044.044.06.11.05.199a1.19 1.19 0 0 1-.109.331 2.71 2.71 0 0 0-.082.191 1.496 1.496 0 0 0-.058.224 2.644 2.644 0 0 0-.191.539c-.011.05-.025.105-.042.166a.613.613 0 0 1-.066.149c-.05.227-.097.36-.14.398-.04.039-.106.006-.2-.1Zm.803-3.366a.385.385 0 0 1-.074-.116.617.617 0 0 1-.042-.15c-.005-.049 0-.074.017-.074.044-.005.097-.052.157-.14.061-.09.086-.167.075-.233a.08.08 0 0 1 .025-.058.104.104 0 0 1 .058-.041c.066-.045.13-.05.19-.017a.417.417 0 0 1 .183.174c.05.105.064.194.042.265a1.04 1.04 0 0 1-.183.282c-.083.11-.16.172-.232.183-.066.01-.138-.014-.216-.075ZM73.42 50.942a.46.46 0 0 1-.191-.091 1.3 1.3 0 0 1-.166-.183.835.835 0 0 1-.091-.19c0-.012-.008-.025-.025-.042a2.406 2.406 0 0 0-.017-.025c-.022-.016-.036-.088-.041-.215a4.322 4.322 0 0 1 .083-.821c.027-.089.069-.208.124-.357.055-.155.102-.293.141-.414l.224-.481-.332-.091a.2.2 0 0 1-.1-.067.161.161 0 0 1-.032-.083c0-.044.025-.096.074-.157.05-.067.086-.1.108-.1a.893.893 0 0 0 .15.008c.077 0 .151-.002.223-.008a.775.775 0 0 0 .133-.016.425.425 0 0 0 .066-.042.206.206 0 0 0 .05-.091l.075-.166c.022-.055.052-.116.09-.182.04-.072.07-.133.092-.183a5.125 5.125 0 0 1 .215-.348.509.509 0 0 1 .125-.14c.05-.045.1-.065.15-.059.054 0 .123.036.206.108a.356.356 0 0 1 .075.124c.006.028-.016.08-.066.158a2.408 2.408 0 0 1-.158.282 7.11 7.11 0 0 0-.157.282c-.089.121-.105.19-.05.207.055.017.21.005.464-.033.16-.028.277-.02.349.025.071.038.113.105.124.199.016.132.003.212-.042.24-.044.028-.171.041-.381.041a3.322 3.322 0 0 1-.34.042h-.207a2.378 2.378 0 0 1-.141.008.457.457 0 0 0-.1.017.178.178 0 0 0-.1.058.675.675 0 0 0-.057.1.755.755 0 0 0-.1.173c-.044.094-.1.197-.166.307a8.224 8.224 0 0 0-.199.697c-.055.226-.1.447-.132.663-.022.138-.02.235.008.29.028.05.1.08.216.091.06.006.157.006.29 0 .138-.01.246-.027.323-.05l.19-.082a111.19 111.19 0 0 0 .332-.182l.075-.05c.028-.045.058-.058.091-.042.034.017.061.058.083.125a.578.578 0 0 1-.041.207c-.028.072-.13.157-.307.257a1.89 1.89 0 0 1-.688.282 1.64 1.64 0 0 1-.522 0ZM75.75 50.784c-.1-.072-.183-.149-.249-.232a.652.652 0 0 1-.116-.348c-.017-.094.017-.213.1-.357.088-.149.212-.304.373-.464.16-.166.337-.32.53-.464.233-.15.398-.26.498-.332a.632.632 0 0 0 .174-.158c.022-.033.022-.063 0-.09-.017-.023-.058-.034-.124-.034-.061-.005-.144-.014-.25-.025a2.178 2.178 0 0 1-.182.008c-.055 0-.121.003-.199.009a2.61 2.61 0 0 0-.306.05c-.1.005-.169.005-.208 0a.294.294 0 0 1-.107-.075l-.075-.133c-.017-.038-.011-.066.017-.083a.155.155 0 0 1 .099-.124c.06-.022.194-.044.398-.066.044.005.13.008.257.008.133 0 .28.011.44.033.232.028.406.055.522.083a.531.531 0 0 1 .24.091c.05.039.083.094.1.166a.34.34 0 0 1 .025.216c-.011.06-.067.13-.166.207a4.901 4.901 0 0 1-.473.323 6.5 6.5 0 0 0-.763.63 4.028 4.028 0 0 0-.49.572c-.02.045.01.08.092.108.023.023.061.036.117.042.055 0 .11-.003.165-.008h.2c.088-.006.14-.003.157.008.044.022.102.022.174 0l.24-.066c.034-.006.086-.012.158-.017l.216-.017c.071-.01.124-.022.157-.033a.632.632 0 0 1 .216-.033c.088-.006.143-.008.166-.008.033.027.046.066.041.116a.257.257 0 0 1-.083.149.447.447 0 0 1-.224.108l-.332.116c-.055.017-.105.022-.149.017-.105.027-.224.05-.356.066-.133.01-.266.02-.398.025a40.33 40.33 0 0 0-.365.016h-.257ZM78.133 51.075a.302.302 0 0 1-.157-.125.61.61 0 0 1-.058-.257c0-.066.01-.155.033-.265l.074-.382v-.033a.909.909 0 0 0 .025-.133l.025-.099c.006-.028.008-.028.008 0l.058-.224.083-.298a10.244 10.244 0 0 1 .116-.39l.034-.091a2.1 2.1 0 0 1 .53-1.244 1.316 1.316 0 0 0 .05-.124.885.885 0 0 1 .017-.1.322.322 0 0 1 .041-.075 2.996 2.996 0 0 0 .124-.224l.034-.09c.033-.072.074-.153.124-.241l.108-.19a1.21 1.21 0 0 1 .1-.175.884.884 0 0 1 .099-.14l-.009-.01c.028-.049.061-.076.1-.082a.577.577 0 0 1 .14-.017c.078 0 .123.011.134.034a.41.41 0 0 1 .016.149c0 .083-.003.143-.008.182 0 .033-.022.072-.067.116h.009c.01-.01.008.003-.008.042a.74.74 0 0 1-.042.074 1.198 1.198 0 0 1-.041.092.19.19 0 0 1-.042.074 2.594 2.594 0 0 0-.124.224l-.216.431-.224.481a7.629 7.629 0 0 0-.157.357l-.042.124a.127.127 0 0 0-.016.05l-.05.116a.828.828 0 0 1-.05.1l-.14.48-.042.174-.075.183-.05.157a.764.764 0 0 0-.024.092.127.127 0 0 1-.034.066.065.065 0 0 1-.008.025v.016a5.436 5.436 0 0 0-.133.88c0 .005-.002.01-.008.016v.016c-.016.117-.044.194-.083.233-.038.038-.097.047-.174.025ZM80.23 50.76a.739.739 0 0 1-.174.016 1.596 1.596 0 0 1-.19-.025c-.05-.017-.075-.033-.075-.05 0-.027-.014-.041-.041-.041l-.042-.033a.364.364 0 0 0-.108-.067.451.451 0 0 1-.074-.248c0-.094.025-.24.074-.44.017-.138.07-.298.158-.48a4.87 4.87 0 0 1 .754-1.095c.15-.155.285-.268.407-.34a.415.415 0 0 1 .282-.124c.11-.006.215.019.315.074.055.028.11.072.165.133.056.06.108.127.158.199.05.072.091.144.124.215.017.061.025.116.025.166.006.044.006.1 0 .166 0 .066-.008.166-.025.298-.027.1-.052.222-.074.365a3.316 3.316 0 0 0-.025.373c-.011.105 0 .18.033.224.039.045.094.047.166.009a.352.352 0 0 1 .19-.042c.061 0 .108.017.141.05.04.033.058.083.058.15 0 .066-.033.135-.099.206a.853.853 0 0 1-.232.175.574.574 0 0 1-.257.066c-.061 0-.119-.036-.174-.108a1.411 1.411 0 0 1-.15-.273 21.66 21.66 0 0 1-.107-.316l-.05-.19-.357.34c-.072.077-.143.149-.215.215a.77.77 0 0 0-.125.133c-.027.05-.08.1-.157.15-.072.049-.171.099-.299.148Zm.025-.49c.094-.055.202-.135.324-.24a4.366 4.366 0 0 0 .647-.721c.093-.128.165-.247.215-.357.05-.11.086-.216.108-.315a.754.754 0 0 0-.108-.19c-.05-.073-.094-.111-.133-.117-.121 0-.251.077-.39.232a6.027 6.027 0 0 0-.596.796l-.067.1a1.55 1.55 0 0 0-.1.19c-.043.1-.088.202-.132.307a.652.652 0 0 0-.066.2c0 .032.003.068.008.107.011.039.039.063.083.075.044.01.113-.012.207-.067ZM83.509 50.942a.46.46 0 0 1-.191-.091 1.3 1.3 0 0 1-.166-.183.827.827 0 0 1-.091-.19c0-.012-.008-.025-.025-.042a23.672 23.672 0 0 0-.017-.025c-.022-.016-.035-.088-.041-.215a4.295 4.295 0 0 1 .083-.821c.027-.089.069-.208.124-.357.055-.155.102-.293.141-.414l.224-.481-.332-.091a.2.2 0 0 1-.1-.067.161.161 0 0 1-.032-.083c0-.044.025-.096.074-.157.05-.067.086-.1.108-.1a.894.894 0 0 0 .15.008c.077 0 .151-.002.223-.008a.777.777 0 0 0 .133-.016.435.435 0 0 0 .066-.042.206.206 0 0 0 .05-.091l.075-.166c.022-.055.052-.116.09-.182.04-.072.07-.133.092-.183a5.15 5.15 0 0 1 .216-.348.507.507 0 0 1 .124-.14c.05-.045.1-.065.15-.059.055 0 .124.036.207.108.044.055.069.097.074.124.006.028-.016.08-.066.158a2.408 2.408 0 0 1-.158.282 7.243 7.243 0 0 0-.157.282c-.089.121-.105.19-.05.207.055.017.21.005.464-.033.16-.028.277-.02.349.025.071.038.113.105.124.199.016.132.003.212-.042.24-.044.028-.17.041-.38.041a3.322 3.322 0 0 1-.34.042h-.208a2.372 2.372 0 0 1-.141.008.457.457 0 0 0-.1.017.178.178 0 0 0-.1.058.674.674 0 0 0-.057.1.76.76 0 0 0-.1.173c-.044.094-.1.197-.166.307a8.224 8.224 0 0 0-.199.697c-.055.226-.099.447-.132.663-.022.138-.02.235.008.29.028.05.1.08.216.091.06.006.157.006.29 0 .138-.01.246-.027.323-.05l.191-.082a111.19 111.19 0 0 0 .332-.182l.074-.05c.028-.045.058-.058.091-.042.034.017.061.058.083.125a.576.576 0 0 1-.041.207c-.028.072-.13.157-.307.257a1.89 1.89 0 0 1-.688.282 1.64 1.64 0 0 1-.522 0ZM86.436 50.95a.414.414 0 0 1-.174-.017 3.03 3.03 0 0 1-.166-.09 1.18 1.18 0 0 1-.274-.283.529.529 0 0 1-.074-.29.27.27 0 0 0 0-.133 13.997 13.997 0 0 1-.008-.057c-.034-.028-.045-.045-.034-.05a.105.105 0 0 0 .025-.05c.044-.011.05-.041.017-.091-.017-.044-.008-.144.025-.299.038-.16.088-.31.149-.447.028-.061.066-.141.116-.24a4.27 4.27 0 0 1 .365-.548c.121-.138.23-.24.323-.307.1-.072.21-.13.332-.174.11-.044.19-.07.24-.075.05-.005.12.028.208.1a.64.64 0 0 1 .298.166.65.65 0 0 1 .166.315c.044.16.058.35.041.572-.01.215-.105.495-.282.837-.105.216-.21.379-.315.49-.1.11-.22.226-.365.348a1.922 1.922 0 0 1-.29.207 1.16 1.16 0 0 1-.323.116Zm.663-.987c.11-.165.197-.317.257-.456.067-.143.12-.323.158-.539a.94.94 0 0 0 .008-.223 1.19 1.19 0 0 0-.041-.258c-.017-.077-.042-.118-.075-.124a.358.358 0 0 0-.24 0c-.089.022-.186.089-.29.2-.095.11-.18.234-.258.372a3.89 3.89 0 0 0-.199.456c-.06.166-.118.343-.174.531-.055.21-.052.37.008.48.067.111.175.14.324.084.15-.061.323-.235.522-.523Z" fill="#000"/><path d="M2 17.026V2h15.22M112 17.026V2H96.78M2 93.313v15.026h15.22M112 93.313v15.026H96.78" stroke="#485BC1" stroke-width="2.176"/><defs><linearGradient id="a" x1="38.284" y1="54.827" x2="57.113" y2="54.827" gradientUnits="userSpaceOnUse"><stop stop-color="#E5C5D5"/><stop offset=".42" stop-color="#EAD4D1"/><stop offset="1" stop-color="#F0E9CB"/></linearGradient><linearGradient id="b" x1="47.993" y1="45.15" x2="48.046" y2="70.032" gradientUnits="userSpaceOnUse"><stop stop-opacity="0"/><stop offset=".99"/></linearGradient><linearGradient id="c" x1="31.978" y1="32.299" x2="63.369" y2="32.299" gradientUnits="userSpaceOnUse"><stop stop-color="#E5C5D5"/><stop offset=".42" stop-color="#EAD4D1"/><stop offset="1" stop-color="#F0E9CB"/></linearGradient><linearGradient id="f" x1="81.679" y1="74.216" x2="84.08" y2="74.216" gradientUnits="userSpaceOnUse"><stop stop-color="#E5C5D5"/><stop offset=".42" stop-color="#EAD4D1"/><stop offset="1" stop-color="#F0E9CB"/></linearGradient><linearGradient id="h" x1="81.679" y1="74.216" x2="84.08" y2="74.216" gradientUnits="userSpaceOnUse"><stop stop-color="#E5C5D5"/><stop offset=".42" stop-color="#EAD4D1"/><stop offset="1" stop-color="#F0E9CB"/></linearGradient><linearGradient id="i" x1="82.97" y1="75.126" x2="82.698" y2="70.787" gradientUnits="userSpaceOnUse"><stop stop-opacity="0"/><stop offset=".99"/></linearGradient><linearGradient id="j" x1="80.724" y1="71.84" x2="84.975" y2="71.84" gradientUnits="userSpaceOnUse"><stop stop-color="#E5C5D5"/><stop offset=".42" stop-color="#EAD4D1"/><stop offset="1" stop-color="#F0E9CB"/></linearGradient><linearGradient id="k" x1="97.182" y1="63.831" x2="107.328" y2="67.582" gradientUnits="userSpaceOnUse"><stop offset=".29" stop-color="#EDDFCD"/><stop offset="1" stop-color="#A39690"/></linearGradient><linearGradient id="l" x1="97.182" y1="63.831" x2="107.328" y2="67.582" gradientUnits="userSpaceOnUse"><stop offset=".29" stop-color="#EDDFCD"/><stop offset="1" stop-color="#A39690"/></linearGradient><filter id="d" x="56.663" y="29.977" width="45.486" height="61.023" filterUnits="userSpaceOnUse" color-interpolation-filters="sRGB"><feFlood flood-opacity="0" result="BackgroundImageFix"/><feColorMatrix in="SourceAlpha" values="0 0 0 0 0 0 0 0 0 0 0 0 0 0 0 0 0 0 127 0" result="hardAlpha"/><feOffset dx="-3" dy="2"/><feGaussianBlur stdDeviation="2"/><feComposite in2="hardAlpha" operator="out"/><feColorMatrix values="0 0 0 0 0 0 0 0 0 0 0 0 0 0 0 0 0 0 0.06 0"/><feBlend in2="BackgroundImageFix" result="effect1_dropShadow_310_22385"/><feBlend in="SourceGraphic" in2="effect1_dropShadow_310_22385" result="shape"/></filter><filter id="e" x="75" y="54" width="27.705" height="28.14" filterUnits="userSpaceOnUse" color-interpolation-filters="sRGB"><feFlood flood-opacity="0" result="BackgroundImageFix"/><feColorMatrix in="SourceAlpha" values="0 0 0 0 0 0 0 0 0 0 0 0 0 0 0 0 0 0 127 0" result="hardAlpha"/><feOffset dx="-1" dy="1"/><feGaussianBlur stdDeviation=".5"/><feComposite in2="hardAlpha" operator="out"/><feColorMatrix values="0 0 0 0 0 0 0 0 0 0 0 0 0 0 0 0 0 0 0.05 0"/><feBlend in2="BackgroundImageFix" result="effect1_dropShadow_310_22385"/><feBlend in="SourceGraphic" in2="effect1_dropShadow_310_22385" result="shape"/></filter></defs></svg>