<svg width="253" height="197" fill="none" xmlns="http://www.w3.org/2000/svg"><path d="m58.256 134.534 19.588-30.804-43.868-27.895-22.655 35.626 36.284 23.073h10.65Z" fill="#F0F0F0"/><path d="M86.014 144.144h-48.52v-9.768h48.52v9.768Zm-47.89-.631h47.26v-8.506h-47.26v8.506Z" fill="#3F3D56"/><path d="M80.028 142.411a3.151 3.151 0 1 0-.001-6.302 3.151 3.151 0 0 0 0 6.302ZM71.205 142.411a3.151 3.151 0 1 0 0-6.302 3.151 3.151 0 0 0 0 6.302ZM62.384 142.411a3.151 3.151 0 1 0-.001-6.302 3.151 3.151 0 0 0 0 6.302ZM53.561 142.411a3.151 3.151 0 1 0 0-6.302 3.151 3.151 0 0 0 0 6.302ZM44.74 142.411a3.151 3.151 0 1 0 0-6.302 3.151 3.151 0 0 0 0 6.302Z" fill="#485BC1"/><path d="M143.671 35.603V11.657h11.973V0H97.041v58.603h50.096v-5.73a8.128 8.128 0 0 1 5.021-7.514 8.129 8.129 0 0 1 3.112-.62h.374v-9.136h-11.973Z" fill="#F0F0F0"/><path d="M169.507 151.233h39.068v8.192h-39.068v-8.192Z" fill="#485BC1"/><path d="M159.739 110.904h57.343v7.562h-57.343v-7.562Z" fill="#F0F0F0"/><path d="M0 193.767h245.123v.63H0v-.63Z" fill="#3F3D56"/><path d="M226.908 194.397H155.27a8.455 8.455 0 0 1-8.448-8.448V52.873a8.455 8.455 0 0 1 8.448-8.448h71.638a8.46 8.46 0 0 1 8.448 8.448V185.95a8.456 8.456 0 0 1-8.448 8.448ZM155.27 45.055a7.828 7.828 0 0 0-7.818 7.818V185.95a7.829 7.829 0 0 0 7.818 7.818h71.638a7.827 7.827 0 0 0 7.818-7.818V52.873a7.829 7.829 0 0 0-7.818-7.818H155.27Z" fill="#3F3D56"/><path d="M182.582 50.726a1.887 1.887 0 0 1-1.747-1.167 1.89 1.89 0 1 1 1.747 1.167Zm0-3.15a1.26 1.26 0 1 0 0 2.52 1.26 1.26 0 0 0 0-2.52ZM187.308 48.52h13.863v.63h-13.863v-.63Z" fill="#3F3D56"/><path d="M229.685 53.562v25.205a25.208 25.208 0 0 1-25.206-25.205h25.206Z" fill="#485BC1"/><path d="M230 185.89h-77.822V53.247H230V185.89Zm-77.192-.63h76.561V53.877h-76.561V185.26Z" fill="#3F3D56"/><path opacity=".1" d="M211.411 77.192a8.506 8.506 0 0 0 8.506-8.507 8.506 8.506 0 1 0-17.013 0 8.506 8.506 0 0 0 8.507 8.507Z" fill="#000"/><path d="M210.151 78.137a8.507 8.507 0 1 0 0-17.014 8.507 8.507 0 0 0 0 17.014Z" fill="#485BC1"/><path d="M155.644 58.602h11.973v4.412h-11.973v-4.412ZM162.26 100.507h11.973v4.411H162.26v-4.411ZM220.233 116.891H162.26v-8.192h57.973v8.192Zm-57.343-.631h56.713v-6.931H162.89v6.931Z" fill="#3F3D56"/><path d="M159.739 134.849h57.343v7.562h-57.343v-7.562Z" fill="#F0F0F0"/><path d="M162.26 124.452h11.973v4.411H162.26v-4.411ZM220.233 140.835H162.26v-8.191h57.973v8.191Zm-57.343-.63h56.713v-6.931H162.89v6.931ZM211.096 157.534h-39.699v-8.822h39.699v8.822Zm-39.069-.63h38.438v-7.561h-38.438v7.561Z" fill="#3F3D56"/><path d="M218.658 113.74a3.154 3.154 0 0 1-3.984 3.038 3.144 3.144 0 0 1-1.596-1.031l-.003-.004a3.15 3.15 0 1 1 5.491-2.75v.001l.001.001.001.001h.001c.059.244.088.493.089.744Z" fill="#485BC1"/><path opacity=".1" d="M218.658 113.74a3.151 3.151 0 0 1-5.58 2.007l-.003-.004a3.15 3.15 0 0 1 1.996-3.708 3.152 3.152 0 0 1 3.495.958v.001l.001.001.001.001h.001c.059.244.088.493.089.744Z" fill="#000"/><path d="M216.767 118.781a3.151 3.151 0 1 0 0-6.303 3.151 3.151 0 0 0 0 6.303ZM218.658 137.685a3.154 3.154 0 0 1-3.984 3.039 3.152 3.152 0 0 1-1.596-1.032l-.003-.003a3.145 3.145 0 0 1 1.02-4.821 3.145 3.145 0 0 1 2.734-.042 3.149 3.149 0 0 1 1.737 2.112v.001l.001.001.001.001h.001c.059.244.088.493.089.744Z" fill="#485BC1"/><path opacity=".1" d="M218.658 137.685a3.16 3.16 0 0 1-2.085 2.965 3.152 3.152 0 0 1-3.495-.958l-.003-.003a3.152 3.152 0 0 1 5.491-2.751v.001l.001.001.001.001h.001c.059.244.088.493.089.744Z" fill="#000"/><path d="M216.767 142.726a3.15 3.15 0 1 0 0-6.301 3.15 3.15 0 0 0 0 6.301Z" fill="#485BC1"/><path d="M147.452 15.123h16.384v16.384h-16.384V15.123Z" fill="#F0F0F0"/><path d="M211.411 27.096a3.782 3.782 0 1 1 0-7.564 3.782 3.782 0 0 1 0 7.564Zm0-6.932a3.153 3.153 0 0 0-3.09 3.766 3.144 3.144 0 0 0 2.475 2.475 3.15 3.15 0 0 0 2.842-5.317 3.156 3.156 0 0 0-2.227-.924ZM128.233 79.712h-8.192V71.52h8.192v8.192Zm-7.562-.63h6.932v-6.931h-6.932v6.931ZM253 140.835h-8.192v-8.191H253v8.191Zm-7.562-.63h6.932v-6.931h-6.932v6.931Z" fill="#3F3D56"/><path d="M119.096 143.356a3.151 3.151 0 1 0 0-6.303 3.151 3.151 0 0 0 0 6.303ZM17.945 162.086a2.06 2.06 0 1 0 0-4.118 2.06 2.06 0 0 0 0 4.118Z" fill="#485BC1"/><path d="M27.718 170.758h.63v23.445h-.63v-23.445Z" fill="#3F3D56"/><path d="M28.033 174.074a3.316 3.316 0 1 0 0-6.632 3.316 3.316 0 0 0 0 6.632ZM28.034 185.208s-.474-10.187-10.183-9.003l10.183 9.003Z" fill="#3F3D56"/><path d="M120.902 193.283h3.565l1.696-13.751h-5.262l.001 13.751ZM103.162 193.283h3.566l1.696-13.751h-5.262v13.751ZM138.786 144.104a3.123 3.123 0 0 0-1.312-4.607l-12.119-33.404-5.964 3.255 13.838 31.922a3.141 3.141 0 0 0 5.557 2.834ZM104.984 150.381a3.118 3.118 0 0 0 1.521-2.162 3.117 3.117 0 0 0-.68-2.554l3.755-35.335-6.787.31-1.56 34.757a3.14 3.14 0 0 0 3.751 4.984ZM115.81 99.906a7.142 7.142 0 1 1 .001-14.285 7.142 7.142 0 0 1-.001 14.285Z" fill="#FFB8B8"/><path d="M105.029 142.345h21.533l-.026-.168c-.039-.25-3.838-25.137-1.036-33.278a3.436 3.436 0 0 0-1.765-4.241c-4.005-1.886-11.692-4.209-18.181 1.427a8.216 8.216 0 0 0-2.751 6.804l2.226 29.456Z" fill="#485BC1"/><path d="m122.426 120.718 9.695-1.967-4.545-10.768a4.07 4.07 0 0 0-7.882 2.035l2.732 10.7ZM110.01 124.37l.583-13.36c.442-2.511-.996-4.886-3.207-5.274-2.211-.386-4.371 1.356-4.815 3.885l-2.191 12.484 9.63 2.265Z" fill="#485BC1"/><path d="M105.745 140.745c-3.465 13.196-3.843 29.973-2.908 48.274l4.653-.582 8.433-34.896 4.653 35.478 5.234-.291c1.564-19.202 3.087-35.686.582-46.529l-20.647-1.454ZM111.104 98.284c1.332 1.419 3.807.657 3.98-1.282.014-.15.013-.302-.002-.452-.09-.86-.586-1.64-.467-2.546.026-.226.111-.44.244-.625 1.062-1.422 3.554.636 4.556-.651.615-.79-.108-2.032.364-2.914.622-1.164 2.466-.59 3.622-1.228 1.286-.709 1.209-2.682.362-3.883-1.032-1.463-2.843-2.245-4.63-2.357-1.788-.113-3.564.37-5.233 1.021-1.896.74-3.777 1.76-4.944 3.428-1.419 2.028-1.555 4.754-.846 7.125.432 1.443 1.906 3.205 2.994 4.364Z" fill="#2F2E41"/></svg>